STARTFONT 2.1
COMMENT
COMMENT Converted from OpenType font "Font 90 Icons.ttf" by "otf2bdf 3.0".
COMMENT
FONT -FreeType-Font 90 Icons-Medium-R-Normal--47-340-100-100-P-174-ISO10646-1
SIZE 34 100 100
FONTBOUNDINGBOX 50 50 0 -10
STARTPROPERTIES 19
FOUNDRY "FreeType"
FAMILY_NAME "Font 90 Icons"
WEIGHT_NAME "Medium"
SLANT "R"
SETWIDTH_NAME "Normal"
ADD_STYLE_NAME ""
PIXEL_SIZE 47
POINT_SIZE 340
RESOLUTION_X 100
RESOLUTION_Y 100
SPACING "P"
AVERAGE_WIDTH 174
CHARSET_REGISTRY "ISO10646"
CHARSET_ENCODING "1"
FONT_ASCENT 39
FONT_DESCENT 9
COPYRIGHT "Typeface © (el-harrak.blogspot.com). <darrati10@gmail.com>. All Rights Reserved"
_OTF_FONTFILE "Font 90 Icons.ttf"
_OTF_PSNAME "Font 90 Icons"
ENDPROPERTIES
CHARS 242
STARTCHAR 0000
ENCODING 0
SWIDTH 0 0
DWIDTH 0 0
BBX 0 0 0 0
BITMAP
ENDCHAR
STARTCHAR 001D
ENCODING 29
SWIDTH 0 0
DWIDTH 0 0
BBX 0 0 0 0
BITMAP
ENDCHAR
STARTCHAR 0020
ENCODING 32
SWIDTH 254 0
DWIDTH 12 0
BBX 0 0 0 0
BITMAP
ENDCHAR
STARTCHAR 0021
ENCODING 33
SWIDTH 974 0
DWIDTH 46 0
BBX 46 46 0 -8
BITMAP
000007000000
0000FFFC0000
0007FFCF8000
001FFFF1E000
003FFFFC7000
007FFFFE1800
01FFFFFF0C00
03FFFFFF0600
03FFFFFF8300
07FFFFFF8180
0FFFF87F80C0
1FFFF03FC040
1FFFF03FC060
3FFFF03F8030
3FFFF87F8030
7FFFFFFF8010
7FFFFFFF8018
7FFFFFFF0018
7FFFFFFF0008
7FFFFFFE0008
FFFFFFFC0008
FFFFFFF00008
FFFFFFC0000C
FFFFF000000C
FFFFC0000008
FFFF00000008
7FFE00000008
7FFC00000008
7FFC00000018
7FF800000018
7FF800000010
3FF807800030
3FF00FC00030
1FF00FC00060
1FF00FC00040
0FF8078000C0
07F802000180
03F800000300
03FC00000600
01FC00000C00
007E00001800
003F00007000
001F8001E000
0007E00F8000
0000FFFC0000
000007000000
ENDCHAR
STARTCHAR 0022
ENCODING 34
SWIDTH 974 0
DWIDTH 46 0
BBX 46 36 0 -3
BITMAP
0000FFFC0000
0000FFFC0000
0000C00C0000
0001C00E0000
0001C0060000
0001C0060000
1FFFFFFFFFE0
7FFFFFFFFFF8
7FFFFFFFFFF8
FFFFFFFFFFF8
FFFFFFFFFFFC
FFFFFFFFFFFC
FFFFFFFFFFFC
FFFFFFFFFFFC
FFFFFFFFFFFC
FFFFFFFFFFFC
FFFFFFFFFFFC
FFFFFFFFFFFC
FFFFFFFFFFFC
FFFFFFFFFFFC
FFFFFFFFFFFC
FFFFFFFFFFFC
FFFFFFFFFFFC
FFFFFFFFFFFC
FFFFFFFFFFFC
FFFFFFFFFFFC
FFFFFFFFFFFC
FFFFFFFFFFFC
FFFFFFFFFFFC
FFFFFFFFFFFC
FFFFFFFFFFFC
FFFFFFFFFFFC
FFFFFFFFFFFC
7FFFFFFFFFF8
7FFFFFFFFFF8
3FFFFFFFFFF0
ENDCHAR
STARTCHAR 0023
ENCODING 35
SWIDTH 974 0
DWIDTH 46 0
BBX 42 48 2 -10
BITMAP
0007E0000000
003FFE000000
F0FFFFC00000
F9FFFFF00000
FBFFFFFE0600
FBFFFFFFFE00
F9FFFFFFFE00
F9FFFFFFFE00
7DFFFFFFFF00
7DFFFFFFFF00
7DFFFFFFFF00
7DFFFFFFFF00
7CFFFFFFFF00
3CFFFFFFFF00
3EFFFFFFFF00
3EFFFFFFFF80
3EFFFFFFFF80
3E7FFFFFFF80
3E7FFFFFFF80
1E7FFFFFFF80
1F7FFFFFFF80
1F7FFFFFFFC0
1F3FC07FFFC0
1F3E000FFFC0
1F380001FFC0
0FB000007FC0
0F8000001FC0
0F8000000000
0F8000000000
0F8000000000
078000000000
07C000000000
07C000000000
07C000000000
07C000000000
07C000000000
03E000000000
03E000000000
03E000000000
03E000000000
03E000000000
01E000000000
01F000000000
01F000000000
01F000000000
01F000000000
01F000000000
00F000000000
ENDCHAR
STARTCHAR 0024
ENCODING 36
SWIDTH 974 0
DWIDTH 46 0
BBX 45 46 0 -8
BITMAP
008000000000
07F000000000
0FF800000000
1FF800000000
3FFC00000000
7FFE00000000
7FFF00000000
FFFF80000000
FFFFC0000000
FFFFE0000000
7FFFF8000000
7FFFFC000000
3FFFFA000000
1FFFF7800000
0FFFEFC00000
07FFDFE00000
03FFBFF00000
01FF7FF00000
00FEFFE00000
007DFFC00000
003BFF800000
0017FF000000
001FFF000000
000FFF800000
0007F9C00000
0003F0E00000
0001E0700000
0001C0380000
000080180000
0000000C0000
000000060000
000000030000
000000018000
00000000C000
000000006000
000000001000
000000000800
000000000400
000000000200
000000000100
000000000080
000000000040
000000000020
000000000010
000000000008
000000000008
ENDCHAR
STARTCHAR 0025
ENCODING 37
SWIDTH 974 0
DWIDTH 46 0
BBX 42 48 2 -9
BITMAP
00001E000000
00003F000000
00007F800000
00007F800000
00007F800000
0001FFE00000
000FFFFC0000
001FFFFE0000
007FFFFF8000
00FFFFFFC000
79FFFFFFEF00
FFFF3F3FFFC0
FFFC3E0FFFC0
FFF01E03FFC0
FFE01E01FFC0
FFF01C03FFC0
7FF81C07FF80
3FF80C0FFF00
3FFC0C1FFF00
3FFF1C3FFF00
3F7F9EFF3F00
3E07FFF83F00
7E00FFC01F80
7E007F801F80
7E007F801F80
7E00FFC01F80
3E03FFF01F00
3F3FFFFF3F00
3FFF1C3FFF00
3FFE0C1FFF00
3FFC1C0FFF00
7FF81E07FF80
FFF01E03FFC0
FFE01E01FFC0
FFF01E03FFC0
FFF83F07FFC0
FFFE3F1FFFC0
79FFFFFFEF80
00FFFFFFC000
007FFFFF8000
003FFFFF0000
000FFFFC0000
0003FFF00000
00007F800000
00007F800000
00007F000000
00003F000000
00001E000000
ENDCHAR
STARTCHAR 0026
ENCODING 38
SWIDTH 974 0
DWIDTH 46 0
BBX 46 46 0 -8
BITMAP
000007800000
0000FFFC0000
0007FFFF0000
001FE01FC000
003F0003F000
00780000F800
01F007803C00
03C07FF81E00
0381FFFE0700
0707FFFF8380
0E0FFFFFC3C0
1E1FFFFFE1C0
1C3FFFFFF0E0
387FFFFFF8E0
387DFFFFF870
30FCFFFFFC70
70FE7FFDFC38
71FF3FF9FE38
71FF9FF3FE38
61FFCFE7FE18
E3FFE7CFFE18
E3FFF39FFF18
E3FFF83FFF1C
E3FFF87FFF1C
E3FFF87FFF18
E3FFFCFFFE18
61FFFFFFFE18
71FFFFFFFE38
71FFFFFFFE38
70FFFFFFFC38
30FFFFFFFC70
387FFFFFF870
387FFFFFF8E0
1C3FFFFFF0E0
1E1FFFFFE1C0
0E0FFFFFC3C0
0707FFFF8380
0381FFFE0700
03C07FF81E00
01F007803C00
00780000F800
003F0003F000
000FE01FC000
0007FFFF0000
0000FFFC0000
000003000000
ENDCHAR
STARTCHAR 0027
ENCODING 39
SWIDTH 974 0
DWIDTH 46 0
BBX 45 46 0 -8
BITMAP
0001F8000000
000FFF000000
003FFFE00000
00FFFFF00000
01FFFFF80000
03FFFFFE0000
07FFFFFE0000
0FFE07FF0000
1FF801FF8000
1FE0007FC000
3FC0F03FC000
3F80F01FC000
7F80F01FE000
7F00F00FE000
7F00F00FE000
7E00F007F000
FE3FFFC7F000
FE3FFFC7F000
FE3FFFC7F000
FE1FFF87F000
7F00F007E000
7F00F00FE000
7F00F00FE000
7F80F01FE000
3F80F01FC000
3FC0F03FC000
1FE0007FC000
1FF801FFE000
0FFF0FFFF000
07FFFFFFF800
03FFFFFFFC00
01FFFFFFFE00
00FFFFFFFF00
003FFFFFFF80
000FFF3FFFC0
0000601FFFE0
0000000FFFF0
00000007FFF0
00000003FFF8
00000001FFF8
00000000FFF8
000000007FF8
000000003FF8
000000001FF8
000000000FF0
0000000003C0
ENDCHAR
STARTCHAR 0028
ENCODING 40
SWIDTH 974 0
DWIDTH 46 0
BBX 46 46 0 -8
BITMAP
0003FC000000
001FFF800000
007FFFE00000
01FFFFF80000
03FFFFFC0000
07FFFFFE0000
0FFFFFFF0000
0FFC03FF0000
1FF000FF8000
3FE0007FC000
3FC0003FC000
7F80001FE000
7F80000FE000
7F00000FE000
7F00000FE000
FE1FFF87F000
FE3FFFC7F000
FE3FFFC7F000
FE3FFFC7F000
FE1FFF87F000
7F000007E000
7F00000FE000
7F00000FE000
7F80001FE000
3FC0001FC000
3FC0003FC000
1FF000FFC000
1FF801FFE000
0FFF9FFFF000
07FFFFFFF800
03FFFFFFFC00
01FFFFFFFE00
00FFFFFFFF00
003FFFFFFF80
000FFF3FFFC0
0000001FFFE0
0000000FFFF0
00000007FFF8
00000003FFF8
00000001FFF8
00000000FFFC
000000007FF8
000000003FF8
000000001FF8
000000000FF0
0000000003C0
ENDCHAR
STARTCHAR 0029
ENCODING 41
SWIDTH 974 0
DWIDTH 46 0
BBX 45 34 0 -2
BITMAP
3FFFFFFFFFF0
7FFFFFFFFFF8
FFFFFFFFFFF8
FC00000000F8
FE00000001F8
FF00000003F8
EF80000007D8
E7C000000F98
E3E000001F18
E1F000003E18
E0F800007C18
E07C0000F818
E03E0001F018
E01F0003E018
E00F8007C018
E007C00F8018
E003E01F0018
E001F03E0018
E003F87F0018
E007FCFF8018
E00F3FF3C018
E01E1FE1E018
E03C0FC0F018
E07800007818
E0F000003C18
E1E000001E18
E3C000000F18
E78000000798
EF00000003D8
FE00000001F8
FC00000000F8
FFFFFFFFFFF8
7FFFFFFFFFF8
7FFFFFFFFFF8
ENDCHAR
STARTCHAR 002A
ENCODING 42
SWIDTH 974 0
DWIDTH 46 0
BBX 40 48 3 -9
BITMAP
00007C0000
00007E0000
00007E0000
00007E0000
00007E0000
00007E0000
00007E0000
00007E0000
00007E0000
00007E0000
00007E0000
00007E0000
00E07E0E00
01F87E3F00
01FE7EFF00
00FFFFFE00
007FFFFE00
003FFFFC00
001FFFF800
3FEFFFF7FC
3FF7FFEFFC
1FFBFFDFF8
CFFDFF3FF3
E7FEFE7FE7
F3FF7CFFCF
F9FFB9FF9F
FCFFC3FF3F
FE7FFFFE7F
FF3FFFFCFF
FF9FFFF9FF
FFCFFFF3FF
FFE7FFE7FF
FFF3FFCFFF
FFF9FF9FFF
FFF8FF1FFF
FFF67E6FFF
FFEF3CF7FF
FFDF81FBFF
FFBFFFFDFF
FF7FFFFEFF
FEFFFFFF7F
FDFFFFFFBF
FBFFFFFFDF
F7FFFFFFEF
EFFFFFFFF7
DFFFFFFFFB
3FFFFFFFFC
3FFFFFFFFC
ENDCHAR
STARTCHAR 002B
ENCODING 43
SWIDTH 974 0
DWIDTH 46 0
BBX 45 45 0 -8
BITMAP
FFFFFFFFFFF8
FFFFFFFFFFF8
FFFFFFFFFFF8
FFFFFFFFFFF8
FFFFFFFFFFF8
FCFFFFFFFCF8
FC01FFFE00F8
FC03FFFF00F8
FC07FFFF80F8
FC03FFFF00F8
FC01FFFE00F8
FC00FFFC00F8
FC007FF800F8
FCC0FFFC0CF8
FDE1FFFE1EF8
FFF3FFFF3FF8
FFFFFFFFFFF8
FFFFFFFFFFF8
FFFFFFFFFFF8
FFFFFFFFFFF8
FFFFFFFFFFF8
FFFFFFFFFFF8
FFFFFFFFFFF8
FFFFFFFFFFF8
FFFFFFFFFFF8
FFFFFFFFFFF8
FFFFFFFFFFF8
FFFFFFFFFFF8
FFF3FFFF3FF8
FDE1FFFE1EF8
FCC0FFFC0CF8
FC007FF800F8
FC00FFFC00F8
FC01FFFE00F8
FC03FFFF00F8
FC07FFFF80F8
FC03FFFF00F8
FC01FFFE00F8
FCFFFFFFFCF8
FFFFFFFFFFF8
FFFFFFFFFFF8
FFFFFFFFFFF8
FFFFFFFFFFF8
FFFFFFFFFFF8
FFFFFFFFFFF8
ENDCHAR
STARTCHAR 002C
ENCODING 44
SWIDTH 974 0
DWIDTH 46 0
BBX 46 45 0 -8
BITMAP
00000000FE00
0000003FFF00
0000007FFF80
000000FFFFC0
000001FFFFE0
000003FFFFF0
000007FFF7F8
00000FFFE3FC
00001FFFC1F8
00003FFFC1F8
00007FFFE3F8
0000FFFFF7F8
0001FFFFFFF8
0003FFFFFFF0
0007FFFFFFF0
000FFFFFFFF0
001FFFFFFFF0
003FFFFFFFF0
007FFFFFFFF0
00F9FFFFFFE0
01F8FFFFFFC0
03FC7FFFFF80
07DE3FFFFF00
0F8F1FFFFE00
1FC78FFFFC00
3FE3C7FFF800
7FF1E3FFF000
FFF8F1FFE000
3FFC78FFC000
1FFE3C7F8000
0FFF1E3F0000
07FF8F3E0000
03FFC7FC0000
01FFE3F80000
00FFF1F00000
007FFBE00000
003FFFC00000
001FFF800000
000FFF000000
0007FE000000
0003FC000000
0001F8000000
0000F0000000
000060000000
000040000000
ENDCHAR
STARTCHAR 002D
ENCODING 45
SWIDTH 974 0
DWIDTH 46 0
BBX 46 46 0 -8
BITMAP
000007000000
0000FFFC0000
0007FFFF0000
001FF87FC000
003F0003F000
007C0000F800
01F000003C00
03E000001E00
03C000000F00
07E000020780
0F70000703C0
1E38000F01C0
1C1C001F00E0
3C0E003F00E0
3807007F0070
380380FF0070
700041FF0078
7001FFFF0038
7003FFFF0038
7003FFFF0038
E003FFFF0038
E003FFFF0018
E003FFFF001C
E003FFFF001C
E003FFFF0018
E003FFFF0038
7003FFFF0038
7003FFFF0038
7001FFFF0038
700001FF0038
380000FF0070
3800007F0070
3C00003F40E0
1C00001F60E0
1E00000F71C0
0F0000073BC0
078000021F80
03C000000F00
03E000001E00
01F000003C00
007C0000F800
003F0003F000
001FF03FC000
0007FFFF8000
0000FFFC0000
000007000000
ENDCHAR
STARTCHAR 002E
ENCODING 46
SWIDTH 974 0
DWIDTH 46 0
BBX 39 48 4 -9
BITMAP
1FFFFFFFF0
3FFFFFFFF8
3800000038
3800000018
3800000018
3800000018
3800000018
3800000018
3800000018
3800000018
3800000018
3800000018
3800000018
3800000018
3800000018
3800000018
3800000018
3800000018
3800000018
3800000018
3800000018
3800000018
3800000038
3FFFFFFFF8
1FFFFFFFF0
0000000000
0000000000
1FFFFFFFF8
3FFFFFFFF8
3FFFFFFFF8
3FFFFF00F8
3FFFFF00F8
3FFFFFFFF8
3FFFFFFFF8
3FFFFFFFF8
1FFFFFFFF8
0000180000
0000180000
0000180000
0000180000
0000180000
0000180000
000FFFE000
000FFFE000
000FFFE000
FFFFFFFFFE
FFFFFFFFFE
000FFFE000
ENDCHAR
STARTCHAR 002F
ENCODING 47
SWIDTH 974 0
DWIDTH 46 0
BBX 46 46 0 -8
BITMAP
06001FC00100
07003FF00380
07007FF80380
0380FFFC0700
0381FFFE0700
03C1FFFE0F00
61C1FFFE0E18
61C3FFFE0E38
71E3FFFE1E38
71E3FFFE1C38
70E3FFFE1C78
78E3FFFE3C70
38F3FFFE3C70
38F3FFFE3C70
38F3FFFE3C70
38F3FFFE3CF0
3CF3FFFE3CF0
3CF3FFFE38F0
3CF3FFFE38F0
3CF3FFFE38F0
3CF3FFFE38F0
3CF3FFFE3CF0
38F3FFFE3CF0
38F3FFFE3C70
38F3FFFE3C70
38E3FFFE3C70
78E3FFFE1C70
70E3FFFE1C78
71E1FFFE1E38
71C1FFFE1E38
E1C1FFFE0E1C
E3C0FFFC0E18
0380FFF80F00
03807FF00700
07801FE00700
07001FE00380
07001FE00380
04001FE00100
00001FE00000
00001FE00000
00001FE00000
00001FE00000
00001FE00000
00001FE00000
00001FE00000
00001FC00000
ENDCHAR
STARTCHAR 0030
ENCODING 48
SWIDTH 974 0
DWIDTH 46 0
BBX 46 46 0 -8
BITMAP
000003000000
0000FFFC0000
0007FFFF0000
000FFFFFC000
003FFFFFF000
007FFFFFF800
00FFFFFFFC00
01FFFFFFFE00
03F9FFFEFF00
07F1FFFE3F80
0FE0FFFC1FC0
1FC0FFFC0FC0
1F807FF807E0
3F007FF007E0
3F003FF003F0
3E001FE001F0
7E001FE001F8
7C000FC001F8
7C001FE000F8
7C003FF000F8
FC00787000F8
FC00703800F8
FC00703800FC
FFFFF03FFFFC
FFFFF03FFFF8
FFFFF07FFFF8
7FFFFFFFFFF8
7FFFFFFFFFF8
7FFFFFFFFFF8
7FFFE01FFFF8
3FFFE01FFFF0
3FFFC00FFFF0
3FFF800FFFF0
1FFF8007FFE0
1FFF0007FFE0
0FFF0003FFC0
07FE0001FF80
07FC0001FF00
03FE0001FF00
01FF800FFE00
00FFFFFFF800
003FFFFFF000
001FFFFFE000
0007FFFF8000
0001FFFE0000
000007800000
ENDCHAR
STARTCHAR 0031
ENCODING 49
SWIDTH 974 0
DWIDTH 46 0
BBX 44 48 1 -9
BITMAP
00003FC00000
00007FE00000
00007FE00000
00007FE00000
00007FE00000
00007FE00000
000C7FE30000
003C7FE3C000
007C7FE3E000
01FC7FE3F000
03FC7FE3F800
07FC7FE3FC00
07FC7FE3FE00
0FF87FE1FF00
1FF07FE0FF80
1FE07FE07F80
3FC07FE03FC0
3F807FE01FC0
7F807FE01FE0
7F007FE00FE0
7F007FE00FE0
FE007FE007E0
FE007FE007F0
FE007FE007F0
FE007FE007F0
FC007FE007F0
FC003FC007F0
FE00000007F0
FE00000007F0
FE00000007F0
FE00000007E0
7E0000000FE0
7F0000000FE0
7F0000001FE0
7F8000001FC0
3FC000003FC0
3FC000007F80
1FE00000FF80
0FF80001FF00
0FFC0003FE00
07FF000FFE00
03FFF0FFFC00
01FFFFFFF800
00FFFFFFF000
003FFFFFC000
001FFFFF0000
0007FFFC0000
0000FFE00000
ENDCHAR
STARTCHAR 0032
ENCODING 50
SWIDTH 974 0
DWIDTH 46 0
BBX 43 48 1 -9
BITMAP
00000F000000
00001F800000
00003FC00000
00003FC00000
00003FC00000
00003FC00000
00003FC00000
00003F800000
00003F800000
00001F800000
3C001F800780
7F001F800FE0
7F801F003FE0
FFE00F007FE0
FFF00F00FFE0
7FF80E01FFE0
7FF80E03FFC0
1FFC0E07FF80
0FFE060FFE00
01FF0E1FF800
003FCF7F8000
0003FFF80000
00007FE00000
00003FC00000
00003FC00000
00007FE00000
0001FFF80000
001FFFFF8000
00FF8E1FF800
07FF060FFE00
1FFE0E07FF80
3FFC0F03FFC0
7FF80F01FFE0
7FF00F00FFE0
7FE01F007FE0
7F801F803FE0
7F001F800FE0
3C001F8007C0
00001F800000
00003F800000
00003FC00000
00003FC00000
00003FC00000
00003FC00000
00003FC00000
00003F800000
00001F800000
00000F000000
ENDCHAR
STARTCHAR 0033
ENCODING 51
SWIDTH 974 0
DWIDTH 46 0
BBX 45 42 0 -6
BITMAP
000002000000
000003000000
000003000000
000007800000
000007800000
00000FC00000
00000FC00000
00001FE00000
00001FE00000
00003FF00000
00003FF00000
00007FF80000
00007FF80000
0000FFFC0000
003FFFFFE000
0FFFFFFFFFC0
FFFFFFFFFFF8
3FFFFFFFFFF0
1FFFFFFFFFE0
0FFFFFFFFFC0
07FFFFFFFF80
03FFFFFFFF00
01FFFFFFFE00
00FFFFFFFC00
007FFFFFF800
003FFFFFF000
001FFFFFE000
000FFFFFC000
001FFFFFC000
001FFFFFE000
001FFFFFE000
001FFFFFE000
001FFFFFE000
001FFFFFE000
003FFFFFE000
003FFCFFF000
003FF07FF000
003FE01FF000
003F8007F000
003E0001F000
007800007800
006000001800
ENDCHAR
STARTCHAR 0034
ENCODING 52
SWIDTH 974 0
DWIDTH 46 0
BBX 45 33 0 -2
BITMAP
3FFFFFFFFFE0
1FFFFFFFFFE0
0FFFFFFFFFC0
E7FFFFFFFF98
F3FFFFFFFF38
F9FFFFFFFE78
FCFFFFFFFCF8
FE7FFFFFF9F8
FF3FFFFFF3F8
FF9FFFFFE7F8
FFCFFFFFCFF8
FFE7FFFF9FF8
FFF3FFFF3FF8
FFF9FFFE7FF8
FFFCFFFCFFF8
FFFE7FF9FFF8
FFFE3FF3FFF8
FFFE1FE1FFF8
FFFDCFCEFFF8
FFFBE79F7FF8
FFF7F03FBFF8
FFEFFFFFDFF8
FFDFFFFFEFF8
FFBFFFFFF7F8
FF7FFFFFFBF8
FEFFFFFFFDF8
FDFFFFFFFEF8
FBFFFFFFFF78
F7FFFFFFFFB8
EFFFFFFFFFD8
1FFFFFFFFFE0
3FFFFFFFFFE0
1FFFFFFFFFC0
ENDCHAR
STARTCHAR 0035
ENCODING 53
SWIDTH 974 0
DWIDTH 46 0
BBX 45 35 0 -4
BITMAP
00000783F000
00000FC3F000
00003CE3F000
0000703BF000
0001E71FF000
00038FC7F000
000F1FE3F000
001C7FF1F000
0038FFFC7000
00E3FFFE3C00
01C7FFFF8E00
071FFFFFC780
0E3FFFFFF1C0
387FFFFFF8E0
71FFFFFFFC38
E1FFFFFFFC18
01FFFFFFFC00
01FFFFFFFC00
01FFFFFFFC00
01FFFFFFFC00
01FFE01FFC00
01FFE01FFC00
01FFE01FFC00
01FFE01FFC00
01FFE01FFC00
01FFE01FFC00
01FFE01FFC00
01FFE01FFC00
01FFE01FFC00
01FFE01FFC00
01FFE01FFC00
01FFE01FFC00
01FFE01FFC00
01FFE01FFC00
00FFE01FF800
ENDCHAR
STARTCHAR 0036
ENCODING 54
SWIDTH 974 0
DWIDTH 46 0
BBX 45 48 0 -9
BITMAP
004000007000
01F00000F800
03F80001FC00
03F80001FC00
03FC0003FC00
03F80001FC00
03F80001FC00
01F00000F800
000000000000
0FFF0007FE00
3FFF800FFF80
7FFFC01FFFC0
7FFFE01FFFC0
FFFFE03FFFC0
FFFFE03FFDE0
F7FEE03BFFE0
F7FEE03BFEE0
F7FEE07BFEE0
F7FEE077FFF0
F7FEE077FF70
F7FEE0F7FF70
F7FEE0FFFF78
F7FEE0EFFFB8
F7FEE0EFFFB8
F7FEE1EFFFB8
F7FEE0DFFFF8
F7FEE01FFFC0
67FEC01FFFC0
07BE003FFFC0
07BE003FFFE0
07BE003FFFE0
07BE003FFFE0
07BE007FFFF0
07BE0003DE00
07BE0003DE00
07BE0003DE00
07BE0003DE00
07BE0003DE00
07BE0003DE00
07BE0003DE00
07BE0003DE00
07BE0003DE00
07BE0003DE00
07BE0003DE00
07BE0003DE00
07BE0003DE00
07BE0003DE00
031C00019C00
ENDCHAR
STARTCHAR 0037
ENCODING 55
SWIDTH 974 0
DWIDTH 46 0
BBX 46 34 0 -2
BITMAP
0007FE000000
003FFF800000
00FF1FE00000
01FC07F00000
03FC03FC0000
07F803FE0000
0FF801FE0000
1FF801FF0000
1FF801FF8000
3FF803FF8000
3FFC07FFC000
7FFE0FFFC000
7C1FFF83C000
700FFE01E000
7007FE00E000
E007FC00E000
E007FC00E000
E007FC00E000
F007FE00E000
700FFE01E000
781FFF03E000
7E3F1FC7C000
7FFC07FFC000
3FFC03FFC000
3FF803FF8000
1FF801FF8000
1FF801FF0000
0FF801FF0000
07F803FF0018
03FC07FF807C
01FE0FFBC7F8
00FFFFE3FFE0
003FFFC1FF80
000FFE003800
ENDCHAR
STARTCHAR 0038
ENCODING 56
SWIDTH 974 0
DWIDTH 46 0
BBX 36 48 5 -9
BITMAP
3FFFFFFFC0
7FFFFFFFE0
FFFFFFFFF0
FFFFFFFFF0
F0000000F0
F0000000F0
F0000000F0
F0000000F0
F0000000F0
F0000000F0
F0000000F0
F0000000F0
F0000000F0
FFFFFFFFF0
FFFFFFFFF0
FFFFFFFFF0
FFFFFFFFF0
F03E07C0F0
F03E07C0F0
F03E07C0F0
F03E07C0F0
F03E07C0F0
F03E07C0F0
FFFFFFFFF0
FFFFFFFFF0
FFFFFFFFF0
FFFFFFFFF0
F03E07C0F0
F03E07C0F0
F03E07C0F0
F03E07C0F0
F03E07C0F0
F03E07C0F0
FFFFFFFFF0
FFFFFFFFF0
FFFFFFFFF0
FFFFFFFFF0
F83E07C1F0
F03E07C0F0
F03E07C0F0
F03E07C0F0
F03E07C0F0
F03E07C0F0
FFFFFFFFF0
FFFFFFFFF0
FFFFFFFFF0
7FFFFFFFE0
7FFFFFFFE0
ENDCHAR
STARTCHAR 0039
ENCODING 57
SWIDTH 974 0
DWIDTH 46 0
BBX 46 44 0 -7
BITMAP
600000000000
F00000000000
F80000000000
7C0000000000
1E0000000000
0F0000000000
0F87FFFFFFFC
0787FFFFFFF8
03C7FFFFFFF8
03C3FFFFFFF0
01C3FFFFFFF0
01E3FFFFFFE0
00E3FFFFFFE0
00E3FFFFFFC0
00F3FFFFFFC0
0071FFFFFF80
0071FFFFFF80
0071FFFFFF00
0079FFFFFF00
0039FFFFFE00
0039FFFFFE00
0038FFFFFE00
0038FFFFFC00
003C00000000
003C00000000
003C00000000
001C00000000
001C00000000
001FFFFFFF80
001FFFFFFFC0
001FFFFFFFC0
000FFFFFFFC0
000000000000
000000000000
000600000C00
001F80003F00
003FC0007F80
003FC0007FC0
007FE0007FC0
007FE0007FC0
003FE0007FC0
003FC0007F80
001F80003F00
000700000E00
ENDCHAR
STARTCHAR 003A
ENCODING 58
SWIDTH 974 0
DWIDTH 46 0
BBX 45 45 0 -7
BITMAP
0000001FF800
0000007FFE00
000000FFFF80
000001FFFFC0
000003FFFFE0
000007FFE3E0
000007FF81F0
00000FFF80F0
00000FFF80F8
00000FFF80F8
00001FFF81F8
00001FFFC1F8
00001FFFFFF8
00001FFFFFF8
00001FFFFFF8
00000FFFFFF8
00000FFFFFF8
00000FFFFFF0
000047FFFFF0
000067FFFFE0
0000E3FFFFE0
0001F1FFFFC0
0003F8FFFF80
0007FC7FFF00
000FFE1FFC00
001FFF03C000
003FFFC00000
007FFFE00000
00FFFC000000
01FFFC000000
03FFFC000000
07FFE0000000
0FFFE0000000
1FFFE0000000
3FF800000000
7FF800000000
7FF800000000
FFF800000000
FFF800000000
FFF800000000
7FC000000000
7FC000000000
3FC000000000
1FC000000000
078000000000
ENDCHAR
STARTCHAR 003B
ENCODING 59
SWIDTH 974 0
DWIDTH 46 0
BBX 46 46 0 -8
BITMAP
000007800000
000007800000
000007800000
000007800000
000007800000
000007800000
000007800000
000007800000
000007800000
000007800000
000007800000
000007800000
000007800000
000007800000
000007800000
000007800000
000007800000
000007800000
000007800000
000007800000
000007800000
FFFFFFFFFFFC
FFFFFFFFFFFC
FFFFFFFFFFFC
FFFFFFFFFFFC
000007800000
000007800000
000007800000
000007800000
000007800000
000007800000
000007800000
000007800000
000007800000
000007800000
000007800000
000007800000
000007800000
000007800000
000007800000
000007800000
000007800000
000007800000
000007800000
000007800000
000007800000
ENDCHAR
STARTCHAR 003C
ENCODING 60
SWIDTH 974 0
DWIDTH 46 0
BBX 45 36 0 -3
BITMAP
000003000000
000007800000
000007800000
00000FC00000
00001FE00000
00001FE00000
00003FF00000
00003CF00000
00007CF80000
0000F87C0000
0000F87C0000
0001F03E0000
0001E01E0000
0003E01F0000
0007C00F8000
0007C00F8000
000F8007C000
000F0003C000
001F0003E000
003E0001F000
003E0001F000
007C0000F800
007800007800
00F800007C00
01F000003E00
01F000003E00
03E000001F00
03C000000F00
07C000000F80
0F8000000780
0F80000007C0
1F00000003E0
1E00000001E0
3E00000001F0
7C00000000F0
FC00000000F8
ENDCHAR
STARTCHAR 003D
ENCODING 61
SWIDTH 974 0
DWIDTH 46 0
BBX 46 46 0 -8
BITMAP
000007000000
0000FFFC0000
0003F07F0000
000F0007C000
003C0000F000
007000003800
01C000001C00
038000000600
030000000300
063FFFC00180
0C1FFFF801C0
1C07C0FC00C0
1807C07E0060
3807C03F0060
3007C01F0030
3007C01F0030
6007C01F0038
6007C01F0018
6007C01F0018
6007C03E0018
C007C07E0018
C007C0F80018
C007FFF0001C
C007FF80001C
C007C7C00018
C007C3E00018
6007C3E00018
6007C1F00018
6007C0F80018
6007C0F80038
3007C07C0030
3007C03E0030
3807C01F0060
1807C01F0060
1C07C00F80C0
0C1FF807E1C0
063FFC03F180
070000000300
038000000600
01C000001E00
00F000003800
003C0000F000
001F0003C000
0007F87F8000
0000FFFC0000
000007800000
ENDCHAR
STARTCHAR 003E
ENCODING 62
SWIDTH 974 0
DWIDTH 46 0
BBX 45 46 0 -8
BITMAP
000003000000
0000FFFC0000
0003FCFF0000
000F0007C000
003C0000F000
007000003800
01E000001C00
038000000600
030000000300
06003FF8C180
0E00F01FC1C0
1C03C007C0C0
18078001C060
380F0000C060
301E0000E030
301E00006030
603E00006030
607C00000018
607C00000018
607C00000018
C07C00000018
C0FC00000018
C0FC00000008
C0FC00000008
C0FC00000018
C0FC00000018
607C00000018
607C00000018
607C00000018
603E00000038
303E00002030
301F00006030
380F8000C060
1807C0018060
1C03F00700C0
0C01FFFC01C0
06003FF00180
070000000300
038000000600
01C000001C00
00F000003800
003C0000F000
001F0003C000
0007F03F0000
0000FFFC0000
000007800000
ENDCHAR
STARTCHAR 003F
ENCODING 63
SWIDTH 974 0
DWIDTH 46 0
BBX 45 45 0 -8
BITMAP
0000FFFC0000
0003FFFF0000
000FFFFFC000
003FFFFFF000
007FFFFFF800
00FF8007FC00
01FE0001FE00
03F800007F00
07F000003F80
0FE000001FC0
0FC000000FC0
1F80000007E0
3F00000003E0
3F00000003F0
3E00000001F0
7E00000001F8
7C00000000F8
7C00000000F8
7C00000000F8
7C00000000F8
F800000000F8
F800000000F8
F800000000F8
F800000000F8
7C00000000F8
7C00000000F8
7C00000000F8
7C00000000F8
7E00000001F8
3E00000001F0
3F00000003F0
3F00000003E0
1F80000007E0
1FC000000FC0
0FE000001FC0
07F000003F80
03F800007F00
03FC0001FE00
01FF8007FC00
007FF87FF800
003FFFFFF000
001FFFFFC000
0007FFFF8000
0000FFFC0000
000007000000
ENDCHAR
STARTCHAR 0040
ENCODING 64
SWIDTH 974 0
DWIDTH 46 0
BBX 46 46 0 -8
BITMAP
000002000000
000002000000
000003000000
000007000000
000007800000
00000F800000
00000FC00000
00001FC00000
00001FE00000
00003FE00000
00003FF00000
00007FF00000
00007FF80000
0000FFF80000
0000FFFC0000
0001FFFC0000
0001FFFE0000
0003FFFE0000
0003FFFF0000
0007FFFF0000
0007FFFF8000
000FFFFF8000
000FFFFFC000
001FFFFFC000
001FFFFFE000
003FFFFFE000
003FFFFFF000
007FFFFFF000
007FFFFFF800
00FFFFFFF800
00FFFFFFFC00
01FFFFFFFC00
01FFFFFFFE00
03FFFFFFFE00
03FFFFFFFF00
07FFFFFFFF00
07FFFFFFFF80
0FFFFFFFFF80
0FFFFFFFFFC0
1FFFFFFFFFC0
1FFFFFFFFFE0
3FFFFFFFFFE0
3FFFFFFFFFF0
7FFFFFFFFFF0
7FFFFFFFFFF8
FFFFFFFFFFFC
ENDCHAR
STARTCHAR 0041
ENCODING 65
SWIDTH 974 0
DWIDTH 46 0
BBX 45 44 0 -7
BITMAP
800080000000
C00040000000
E00070000000
F80078000000
FC007C000000
FE007E000000
FF807F800000
FFC07FC00000
FFE07FE00000
FFF87FF80000
FFFC7FFC0000
FFFE3FFE0000
FFFF9FFF8000
FFFFCFFFC000
FFFFE3FFE000
FFFFF9FFF800
FFFFFCFFFC00
FFFFFE7FFE00
FFFFFF9FFF80
FFFFFFCFFFC0
FFFFFFE7FFE0
FFFFFFF9FFF8
FFFFFFF9FFF8
FFFFFFE3FFE0
FFFFFFCFFFC0
FFFFFF9FFF80
FFFFFE3FFE00
FFFFFCFFFC00
FFFFF9FFF800
FFFFE3FFE000
FFFFCFFFC000
FFFF9FFF8000
FFFE3FFE0000
FFFC7FFC0000
FFF87FF80000
FFE07FE00000
FFC07FC00000
FF807F800000
FE007F000000
FC007C000000
F80078000000
E00070000000
C00040000000
800080000000
ENDCHAR
STARTCHAR 0042
ENCODING 66
SWIDTH 974 0
DWIDTH 46 0
BBX 40 48 3 -9
BITMAP
80000003FF
E0000003FF
F0000003FF
FC000003FF
FF000003FF
FF800003FF
FFE00003FF
FFF80003FF
FFFC0003FF
FFFF0003FF
FFFF8003FF
FFFFE003FF
FFFFF803FF
FFFFFC03FF
FFFFFF03FF
FFFFFFC3FF
FFFFFFE3FF
FFFFFFFBFF
FFFFFFFFFF
FFFFFFFFFF
FFFFFFFFFF
FFFFFFFFFF
FFFFFFFFFF
FFFFFFFFFF
FFFFFFFFFF
FFFFFFFFFF
FFFFFFFFFF
FFFFFFFFFF
FFFFFFFFFF
FFFFFFFFFF
FFFFFFFBFF
FFFFFFF3FF
FFFFFFC3FF
FFFFFF03FF
FFFFFE03FF
FFFFF803FF
FFFFE003FF
FFFFC003FF
FFFF0003FF
FFFC0003FF
FFF80003FF
FFE00003FF
FF800003FF
FF000003FF
FC000003FF
F8000003FF
E0000003FF
80000003FF
ENDCHAR
STARTCHAR 0043
ENCODING 67
SWIDTH 974 0
DWIDTH 46 0
BBX 34 48 6 -9
BITMAP
FFFC0FFFC0
FFFC0FFFC0
FFFC0FFFC0
FFFC0FFFC0
FFFC0FFFC0
FFFC0FFFC0
FFFC0FFFC0
FFFC0FFFC0
FFFC0FFFC0
FFFC0FFFC0
FFFC0FFFC0
FFFC0FFFC0
FFFC0FFFC0
FFFC0FFFC0
FFFC0FFFC0
FFFC0FFFC0
FFFC0FFFC0
FFFC0FFFC0
FFFC0FFFC0
FFFC0FFFC0
FFFC0FFFC0
FFFC0FFFC0
FFFC0FFFC0
FFFC0FFFC0
FFFC0FFFC0
FFFC0FFFC0
FFFC0FFFC0
FFFC0FFFC0
FFFC0FFFC0
FFFC0FFFC0
FFFC0FFFC0
FFFC0FFFC0
FFFC0FFFC0
FFFC0FFFC0
FFFC0FFFC0
FFFC0FFFC0
FFFC0FFFC0
FFFC0FFFC0
FFFC0FFFC0
FFFC0FFFC0
FFFC0FFFC0
FFFC0FFFC0
FFFC0FFFC0
FFFC0FFFC0
FFFC0FFFC0
FFFC0FFFC0
FFFC0FFFC0
FFFC0FFFC0
ENDCHAR
STARTCHAR 0044
ENCODING 68
SWIDTH 974 0
DWIDTH 46 0
BBX 40 48 3 -9
BITMAP
8000000000
C000000000
F000000000
FC00000000
FE00000000
FF80000000
FFE0000000
FFF0000000
FFFC000000
FFFF000000
FFFF800000
FFFFE00000
FFFFF80000
FFFFFC0000
FFFFFF0000
FFFFFF8000
FFFFFFE000
FFFFFFF800
FFFFFFFC00
FFFFFFFF00
FFFFFFFFC0
FFFFFFFFE0
FFFFFFFFF8
FFFFFFFFFE
FFFFFFFFFF
FFFFFFFFF8
FFFFFFFFF0
FFFFFFFFC0
FFFFFFFF00
FFFFFFFE00
FFFFFFF800
FFFFFFF000
FFFFFFC000
FFFFFF0000
FFFFFE0000
FFFFF80000
FFFFE00000
FFFFC00000
FFFF000000
FFFC000000
FFF8000000
FFE0000000
FFC0000000
FF00000000
FC00000000
F800000000
E000000000
8000000000
ENDCHAR
STARTCHAR 0045
ENCODING 69
SWIDTH 974 0
DWIDTH 46 0
BBX 45 45 0 -8
BITMAP
0000FFF80000
0003FFFF0000
000FFFFFC000
003FFFFFF000
007FFFFFF800
00FFFFFFFC00
01FFFFFFFE00
03FFFFFFFF00
07FFFFFFFF80
0FFFFFFFFFC0
0FFFFFFFFFC0
1FFFFFFFFFE0
1FFFF03FFFE0
3FFFC00FFFF0
3FFF8007FFF0
7FFE0003FFF8
7FFE0001FFF8
7FFC0000FFF8
7FFC0000FFF8
7FF800007FF8
FFF800007FF8
FFF800007FF8
FFF800007FF8
FFF800007FF8
7FF800007FF8
7FFC0000FFF8
7FFC0000FFF8
7FFE0001FFF8
7FFE0001FFF8
3FFF0003FFF0
3FFFC00FFFF0
3FFFF03FFFE0
1FFFFFFFFFE0
0FFFFFFFFFC0
0FFFFFFFFFC0
07FFFFFFFF80
03FFFFFFFF00
01FFFFFFFE00
00FFFFFFFC00
007FFFFFF800
003FFFFFF000
000FFFFFC000
0003FFFF0000
0000FFFC0000
000003000000
ENDCHAR
STARTCHAR 0046
ENCODING 70
SWIDTH 974 0
DWIDTH 46 0
BBX 44 45 1 -8
BITMAP
FFFFFFFFFFF0
FFFFFFFFFFF0
FFFFFFFFFFF0
FFFFFFFFFFF0
FFFFFFFFFFF0
FFFFFFFFFFF0
FFFFFFFFFFF0
FFFFFFFFFFF0
FFFFFFFFFFF0
FFFFFFFFFFF0
FFFFFFFFFFF0
FFFFFFFFFFF0
FFFFFFFFFFF0
FFFFFFFFFFF0
FFFFFFFFFFF0
FFFFFFFFFFF0
FFFFFFFFFFF0
FFFFFFFFFFF0
FFFFFFFFFFF0
FFFFFFFFFFF0
FFFFFFFFFFF0
FFFFFFFFFFF0
FFFFFFFFFFF0
FFFFFFFFFFF0
FFFFFFFFFFF0
FFFFFFFFFFF0
FFFFFFFFFFF0
FFFFFFFFFFF0
FFFFFFFFFFF0
FFFFFFFFFFF0
FFFFFFFFFFF0
FFFFFFFFFFF0
FFFFFFFFFFF0
FFFFFFFFFFF0
FFFFFFFFFFF0
FFFFFFFFFFF0
FFFFFFFFFFF0
FFFFFFFFFFF0
FFFFFFFFFFF0
FFFFFFFFFFF0
FFFFFFFFFFF0
FFFFFFFFFFF0
FFFFFFFFFFF0
FFFFFFFFFFF0
FFFFFFFFFFF0
ENDCHAR
STARTCHAR 0047
ENCODING 71
SWIDTH 974 0
DWIDTH 46 0
BBX 40 48 3 -9
BITMAP
FFC0000001
FFC0000007
FFC000000F
FFC000003F
FFC00000FF
FFC00001FF
FFC00007FF
FFC0001FFF
FFC0003FFF
FFC000FFFF
FFC001FFFF
FFC007FFFF
FFC01FFFFF
FFC03FFFFF
FFC0FFFFFF
FFC3FFFFFF
FFC7FFFFFF
FFDFFFFFFF
FFFFFFFFFF
FFFFFFFFFF
FFFFFFFFFF
FFFFFFFFFF
FFFFFFFFFF
FFFFFFFFFF
FFFFFFFFFF
FFFFFFFFFF
FFFFFFFFFF
FFFFFFFFFF
FFFFFFFFFF
FFFFFFFFFF
FFDFFFFFFF
FFCFFFFFFF
FFC3FFFFFF
FFC0FFFFFF
FFC07FFFFF
FFC01FFFFF
FFC00FFFFF
FFC003FFFF
FFC000FFFF
FFC0007FFF
FFC0001FFF
FFC00007FF
FFC00003FF
FFC00000FF
FFC000003F
FFC000001F
FFC0000007
FFC0000001
ENDCHAR
STARTCHAR 0048
ENCODING 72
SWIDTH 974 0
DWIDTH 46 0
BBX 45 44 0 -7
BITMAP
000000040008
000000080008
000000380018
000000780078
000000F800F8
000003F801F8
000007F807F8
00000FF80FF8
00003FF81FF8
00007FF87FF8
0000FFF8FFF8
0003FFF1FFF8
0007FFE7FFF8
000FFFCFFFF8
003FFF1FFFF8
007FFE7FFFF8
00FFFCFFFFF8
03FFF1FFFFF8
07FFE7FFFFF8
0FFFCFFFFFF8
3FFF1FFFFFF8
7FFE7FFFFFF8
FFFE7FFFFFF8
3FFF1FFFFFF8
0FFFCFFFFFF8
07FFE7FFFFF8
03FFF3FFFFF8
00FFFCFFFFF8
007FFE7FFFF8
003FFF1FFFF8
000FFFCFFFF8
0007FFE7FFF8
0003FFF3FFF8
0000FFF8FFF8
00007FF87FF8
00003FF83FF8
00000FF80FF8
000007F807F8
000003F803F8
000000F800F8
000000780078
000000380038
000000080008
000000040008
ENDCHAR
STARTCHAR 0049
ENCODING 73
SWIDTH 974 0
DWIDTH 46 0
BBX 44 45 1 -8
BITMAP
F08000000000
F0E000000000
F0F000000000
F0FC00000000
F0FC00000000
F0FC00000000
F0FC20000000
F0FC38000000
F0FC3C000000
F0FC3F000000
F0FC3FC00000
F0FC3FE00000
F0FC3FF80000
F0FC3FFC0000
F0FC3FFF0000
F0FC3FFFC000
F0FC3FFFE000
F0FC3FFFF800
F0FC3FFFFE00
F0FC3FFFFF00
F0FC3FFFFFC0
F0FC3FFFFFF0
F0FC3FFFFFF0
F0FC3FFFFFC0
F0FC3FFFFF80
F0FC3FFFFE00
F0FC3FFFF800
F0FC3FFFF000
F0FC3FFFC000
F0FC3FFF0000
F0FC3FFE0000
F0FC3FF80000
F0FC3FE00000
F0FC3FC00000
F0FC3F000000
F0FC3C000000
F0FC38000000
F0FC20000000
F0FC00000000
F0FC00000000
F0FC00000000
F0F800000000
F0E000000000
F08000000000
F10000000000
ENDCHAR
STARTCHAR 004A
ENCODING 74
SWIDTH 974 0
DWIDTH 46 0
BBX 45 44 0 -7
BITMAP
000002000000
000003000000
000007800000
00000FC00000
00000FC00000
00001FE00000
00003FF00000
00007FF80000
00007FF80000
0000FFFC0000
0001FFFE0000
0003FFFF0000
0007FFFF0000
0007FFFF8000
000FFFFFC000
001FFFFFE000
003FFFFFE000
003FFFFFF000
007FFFFFF800
00FFFFFFFC00
01FFFFFFFC00
01FFFFFFFE00
03FFFFFFFF00
07FFFFFFFF80
0FFFFFFFFF80
0FFFFFFFFFC0
1FFFFFFFFFE0
3FFFFFFFFFF0
7FFFFFFFFFF8
FFFFFFFFFFF8
000000000000
000000000000
000000000000
FFFFFFFFFFF8
FFFFFFFFFFF8
FFFFFFFFFFF8
FFFFFFFFFFF8
FFFFFFFFFFF8
FFFFFFFFFFF8
FFFFFFFFFFF8
FFFFFFFFFFF8
FFFFFFFFFFF8
FFFFFFFFFFF8
FFFFFFFFFFF8
ENDCHAR
STARTCHAR 004B
ENCODING 75
SWIDTH 974 0
DWIDTH 46 0
BBX 45 46 0 -8
BITMAP
000000000300
000000000F00
000000001F80
000000003F80
000000003F00
000000007F00
000000007F00
00000000FE00
00000000FC00
00000001FC00
00000003F800
00000003F800
00000007F000
00000007F000
0FFFFFFFE000
1FFFFFFFC000
1FFFFFFFC000
3FFFFFFFC000
7FFFFFFFE000
FFFFFFFFE000
0FFFFFFFF000
003FFFFFF000
0001FFFFF800
00000FFFFC00
000003FFFC00
000007FFFE00
000007FFFE00
00000FE7FF00
00000FC7FF00
00001FC3FF80
00001F81FF80
00003F00FFC0
00003F007FE0
00007E003FE0
000FFC001FF0
003FFC001FF0
003FF8000FF8
007FFC0007F8
00FFFC0003F8
0003FC0001F0
00007E0000F0
00003E000060
00003E000040
00001E000000
00000C000000
000004000000
ENDCHAR
STARTCHAR 004C
ENCODING 76
SWIDTH 974 0
DWIDTH 46 0
BBX 38 48 4 -9
BITMAP
0000000200
0000000200
0000000600
0000000700
0000000F00
000FFC0F80
007FFFFF80
01FFFFFF80
03FFFFFFC0
07FFFFFFC0
0FFFFFFFE0
1FF0FFFFE0
3F000FFFE0
780003FFF0
400003FFF0
800003FFF8
000007FFF8
00000FFFFC
00000FFFFC
00001FFFF0
00003FF000
0000300000
0000000000
0000000000
0000000000
0000000000
0000100000
000FE00000
0FFFE00000
FFFFC00000
FFFFC00000
7FFF800000
7FFF000004
7FFF000008
3FFF000030
3FFFC001F0
1FFFF81FE0
1FFFFFFFC0
1FFFFFFF80
0FFFFFFF00
0FFFFFFE00
07FFFFF800
07C3FFC000
0380000000
0380000000
0380000000
0100000000
0100000000
ENDCHAR
STARTCHAR 004D
ENCODING 77
SWIDTH 974 0
DWIDTH 46 0
BBX 45 38 0 -4
BITMAP
0003FF800000
000FFFF00000
003FFFF80000
00FFFFFE0000
01FFFFFF0000
03FFFFFF8000
07FC007FC000
0FF8001FE000
1FE0000FF000
1FC00007F000
3F800003F800
3F000001F800
7F000001FC00
7E000000FC00
7E000000FC00
7E00003FFFF8
FC00001FFFF0
FC00000FFFF0
FC00000FFFE0
FC000007FFC0
FC000003FF80
FC000001FF00
7E000000FE00
7E0000007C00
7E0000003C00
7F0000003800
3F0000001000
3F8000000000
1FC000000000
1FE000000000
0FF800100000
07FE00780000
03FFFFF80000
01FFFFF80000
00FFFFFC0000
003FFFF80000
000FFFF00000
0003FF800000
ENDCHAR
STARTCHAR 004E
ENCODING 78
SWIDTH 974 0
DWIDTH 46 0
BBX 45 32 0 -1
BITMAP
0000000003C0
0000000007E0
000000000FF0
000000001FF8
000000003FF8
000000007FF8
00000000FFF8
00000001FFF0
00000003FFE0
0E000007FFC0
1F00000FFF80
3F80001FFF00
7FC0003FFE00
7FE0007FFC00
FFF000FFF800
7FF801FFF000
7FFC03FFE000
3FFE07FFC000
1FFF0FFF8000
0FFF9FFF0000
07FFFFFE0000
03FFFFFC0000
01FFFFF80000
00FFFFF00000
007FFFE00000
003FFFC00000
001FFF800000
000FFF000000
0007FE000000
0003FC000000
0001F8000000
0000F0000000
ENDCHAR
STARTCHAR 004F
ENCODING 79
SWIDTH 974 0
DWIDTH 46 0
BBX 45 45 0 -8
BITMAP
3FF800000000
7FFF80000000
7FFFF0000000
FFFFFC000000
FFFFFF000000
7FFFFFC00000
7FFFFFE00000
1FFFFFF80000
003FFFFC0000
0003FFFE0000
00007FFF0000
00001FFF8000
000007FFC000
3FE001FFE000
7FFC00FFF000
7FFF807FF800
FFFFC01FFC00
FFFFF00FFC00
7FFFF807FE00
7FFFFE07FF00
3FFFFF03FF00
00FFFF81FF80
000FFFC0FF80
0003FFC0FFC0
0001FFE07FC0
00007FF07FE0
00003FF03FE0
00001FF83FE0
00000FFC1FF0
01800FFC1FF0
0FF007FC1FF0
1FF803FE0FF0
3FFC03FE0FF8
7FFE01FE0FF8
7FFE01FF0FF8
7FFE01FF07F8
FFFF01FF07F8
FFFF00FF07F8
7FFE00FF07F8
7FFE00FF07F8
7FFE00FF07F8
3FFC00FF07F8
1FF800FF03F8
0FF0007E03F0
018000180040
ENDCHAR
STARTCHAR 0050
ENCODING 80
SWIDTH 974 0
DWIDTH 46 0
BBX 42 48 2 -9
BITMAP
00003F000000
0003FFF00000
000FFFFC0000
001FFFFE0000
007FFFFF0000
00FFFFFF8000
01FFFFFFC000
01FFC0FFE000
03FF003FF000
07FC001FF000
07F8000FF800
07F00007F800
0FF00003FC00
0FE00003FC00
0FE00001FC00
0FE00001FC00
0FE00001FC00
0FE00001FC00
0FC00001FC00
0FC00001FC00
0FC00001FC00
0FC00001FC00
FFFFFFFFFFC0
FFFFFFFFFFC0
FFFFFFFFFFC0
FFFFFFFFFFC0
FFFFFFFFFFC0
FFFFFFFFFFC0
FFFFE1FFFFC0
FFFFC0FFFFC0
FFFFC0FFFFC0
FFFFC0FFFFC0
FFFFC0FFFFC0
FFFFE1FFFFC0
FFFFE1FFFFC0
FFFFE1FFFFC0
FFFFE1FFFFC0
FFFFE1FFFFC0
FFFFE1FFFFC0
FFFFE1FFFFC0
FFFFE1FFFFC0
FFFFE1FFFFC0
FFFFFFFFFFC0
FFFFFFFFFFC0
FFFFFFFFFFC0
FFFFFFFFFFC0
FFFFFFFFFFC0
FFFFFFFFFFC0
ENDCHAR
STARTCHAR 0051
ENCODING 81
SWIDTH 974 0
DWIDTH 46 0
BBX 45 45 0 -8
BITMAP
007FFFFFF000
007FFFFFF000
007FFFFFF000
007FFFFFF000
007FFFFFF000
007FFFFFF000
007FFFFFF000
007FFFFFF000
007FFFFFF000
007FFFFFF000
007FFFFFF000
007FFFFFF000
007FFFFFF000
007FFFFFF000
007FFFFFF000
007FFFFFF000
000003000000
000003000000
000003000000
000003000000
000003000000
000003000000
000003000000
007FFFFFF800
007FFFFFF800
006000000800
006000000800
006000000800
006000000800
FFFFF03FFFF8
FFFFF03FFFF8
FFFFF03FFFF8
FFFFF03FFFF8
FFFFF03FFFF8
FFFFF03FFFF8
FFFFF03FFFF8
FFFFF03FFFF8
FFFFF03FFFF8
FFFFF03FFFF8
FFFFF03FFFF8
FFFFF03FFFF8
FFFFF03FFFF8
FFFFF03FFFF8
FFFFF03FFFF8
FFFFF03FFFF8
ENDCHAR
STARTCHAR 0052
ENCODING 82
SWIDTH 974 0
DWIDTH 46 0
BBX 46 27 0 1
BITMAP
000070000000
00007C000000
00003E000000
00001F000000
003FFF83F000
01FFFFE3FE00
07FFFFF3FF80
0FFFFFF3FFC0
1FFFFFE3FFE0
3FFFFFC3FFF0
3F803F8007F0
7F003E0003F8
7E003C0001F8
7C00780001F8
FC00600000F8
FC00000000FC
FC00000000F8
7E00000001F8
7E00000001F8
7F00000003F8
3FC000000FF0
3FFFFFFFFFF0
1FFFFFFFFFE0
0FFFFFFFFFC0
07FFFFFFFF80
01FFFFFFFE00
001FFFFFE000
ENDCHAR
STARTCHAR 0053
ENCODING 83
SWIDTH 974 0
DWIDTH 46 0
BBX 46 38 0 -4
BITMAP
000000030000
00000007C000
0000000FE000
0000001FF000
0000003FF800
0000007FFC00
000000FFFE00
7FFFE1FFFF00
FFFFF3FFFF80
FFFFE7FFFFC0
FFFFCFFFFFE0
FFFF9FFFFFF0
FFFF3FFFFFF8
FFFF7FEFFFF8
FFFF7F8FE7F8
FF007E0FE1F8
FE00380FE030
FE7F87EFEF84
FCFFFFEFEFF8
FCFFFFEFEFF8
FCFFFFEFEFF8
FDFFFFEFEFF8
F9FFFFEFEFF0
F9FFFFEFEFF0
FBFFFFEFEFF0
F3FFFFEFEFE0
F3FFFFEFEFE0
F3FFFFEFEFE0
F7FFFFEFEFE0
E7FFFFEFEFC0
E7FFFFE39FC0
EFFFFFF87FC0
CFFFFFFFFF80
CFFFFFFFFF80
4FFFFFFFFF80
1FFFFFFFFF80
1FFFFFFFFF00
0FFFFFFFFE00
ENDCHAR
STARTCHAR 0054
ENCODING 84
SWIDTH 974 0
DWIDTH 46 0
BBX 45 46 0 -8
BITMAP
000002000000
0000FFF80000
0003FFFF0000
000FFFFFC000
003FFFFFF000
007FFFFFF800
00FFFFFFFC00
01FFF03FFE00
03FF8007FF00
07FE0001FF80
0FFC0000FFC0
1FFE00003FC0
1FFF00001FE0
3FFF80001FE0
3FDFC0000FF0
3F8FE00007F0
7F07F00007F0
7F03F80003F8
7F01FC0003F8
7E00FE0003F8
FE007F0003F8
FE003F8001F8
FE001FC001F8
FE000FE001F8
FE0007F001F8
FE0003F803F8
7E0001FC03F8
7F0000FE03F8
7F00007F03F8
7F00003F87F0
3F80001FC7F0
3F80000FEFF0
3FC00007FFE0
1FE00003FFE0
1FF00001FFC0
0FF80000FFC0
07FC0001FF80
03FF0007FF00
03FFE03FFE00
01FFFFFFFC00
007FFFFFF800
003FFFFFF000
001FFFFFC000
0007FFFF0000
0000FFFC0000
000003000000
ENDCHAR
STARTCHAR 0055
ENCODING 85
SWIDTH 974 0
DWIDTH 46 0
BBX 45 40 0 -5
BITMAP
000001000000
000003800000
000007800000
00000F800000
00001F800000
00003F800000
00007F800000
0000FF800000
0001FF800000
0003FF800000
0007FF800000
000FFF800000
FFFFFF800000
FFFFFF800000
FFFFFF800000
FFFFFF800000
FFFFFF800000
FFFFFF87FFF8
FFFFFF87FFF8
FFFFFF87FFF8
FFFFFF87FFF8
FFFFFF87FFF8
FFFFFF83FFF8
FFFFFF800000
FFFFFF800000
FFFFFF800000
FFFFFF800000
7FFFFF800000
000FFF800000
0007FF800000
0003FF800000
0001FF800000
0000FF800000
00007F800000
00003F800000
00001F800000
00000F800000
000007800000
000003800000
000001000000
ENDCHAR
STARTCHAR 0056
ENCODING 86
SWIDTH 974 0
DWIDTH 46 0
BBX 46 42 0 -6
BITMAP
000000800000
000001C00000
000003C00000
000007C00000
00000FC00000
00001FC00000
00003FC00000
00007FC00000
0000FFC00000
0001FFC00000
0001FFC00000
0003FFC00000
0007FFC00000
FFFFFFC03F00
FFFFFFC03F00
FFFFFFC03F00
FFFFFFC03F00
FFFFFFC03F00
FFFFFFC7FFF8
FFFFFFC7FFFC
FFFFFFC7FFFC
FFFFFFC7FFFC
FFFFFFC7FFFC
FFFFFFC7FFF8
FFFFFFC03F00
FFFFFFC03F00
FFFFFFC03F00
FFFFFFC03F00
FFFFFFC03F00
0007FFC01E00
0007FFC00000
0003FFC00000
0001FFC00000
0000FFC00000
00007FC00000
00003FC00000
00001FC00000
00000FC00000
000007C00000
000003C00000
000001C00000
000000800000
ENDCHAR
STARTCHAR 0057
ENCODING 87
SWIDTH 974 0
DWIDTH 46 0
BBX 45 44 0 -7
BITMAP
00300000FC00
03FF0003FF00
0FFFC00FFFC0
1FFFE01FFFE0
3FFFF03FFFF0
3FFFF87FFFF0
7FFFF8FFFFF8
7FFFFDFFFFF8
FFFFFDFFFFF8
FFFFFFFFFFF8
FFFFFFFFFFF8
7FFFFFFFFFF8
7FFFFFFFFFF8
7FFFFFFFFFF8
7FFFFFFFFFF8
3FFFFFFFFFF8
3FFFFFFFFFF0
1FFFFFFFFFE0
0FFFFFFFFFE0
0FFFFFFFFFC0
07FFFFFFFF80
03FFFFFFFF00
01FFFFFFFE00
00FFFFFFFC00
007FFFFFF800
003FFFFFF000
001FFFFFE000
000FFFFFE000
0007FFFFC000
0003FFFF8000
0001FFFF0000
0000FFFE0000
00007FFC0000
00003FF80000
00001FF00000
00000FE00000
00000FC00000
000007C00000
000003800000
000003800000
000003000000
000001000000
000001000000
000001000000
ENDCHAR
STARTCHAR 0058
ENCODING 88
SWIDTH 974 0
DWIDTH 46 0
BBX 38 48 4 -9
BITMAP
0078000000
00F8000000
00F8000000
00F8000000
00F8000000
00F8000000
00F8000000
00F8000000
00F8000000
00F8000000
00F8000000
00F8000000
00F8000000
00F8300000
00F8780000
00F8FC0000
00F8FC7800
00F8FC7C00
00F8FC7C78
00F8FC7C7C
78F8FC7C7C
F8FCFCFCFC
F8FFFFFFFC
F8FFFFFFFC
F8FFFFFFFC
F8FFFFFFFC
F8FFFFFFFC
F8FFFFFFFC
F8FFFFFFFC
F8FFFFFFFC
FCFFFFFFFC
FFFFFFFFFC
FFFFFFFFFC
FFFFFFFFFC
FFFFFFFFFC
7FFFFFFFFC
3FFFFFFFFC
3FFFFFFFFC
1FFFFFFFFC
0FFFFFFFFC
0FFFFFFFFC
07FFFFFFFC
03FFFFFFFC
03FFFFFFFC
01FFFFFFFC
00FFFFFFF8
00FFFFFFF8
007FFFFFF0
ENDCHAR
STARTCHAR 0059
ENCODING 89
SWIDTH 974 0
DWIDTH 46 0
BBX 34 48 6 -9
BITMAP
0001C00000
0001E00000
0001E00000
0001E00000
0041E08000
01F1E3C000
01F1E3E000
01F1E3E000
01F1E3E000
01F1E3E000
01F1E3E380
01F1E3E7C0
01F1E3E7C0
01F1E3E7C0
01F1E3E7C0
01F1E3E7C0
01F1E3E7C0
01F1E3E7C0
01F1E3E7C0
01F1E3E7C0
01F1E3E7C0
01F1E3E7C0
01F1E3E7C0
F1F1E3E7C0
F1FFFFFFC0
F1FFFFFFC0
F1FFFFFFC0
F1FFFFFFC0
F1FFFFFFC0
F1FFFFFFC0
F1FFFFFFC0
F1FFFFFFC0
FFFFFFFFC0
FFFFFFFFC0
FFFFFFFFC0
FFFFFFFFC0
7FFFFFFFC0
7FFFFFFFC0
3FFFFFFFC0
1FFFFFFFC0
1FFFFFFFC0
0FFFFFFFC0
0FFFFFFFC0
07FFFFFFC0
03FFFFFFC0
03FFFFFFC0
01FFFFFF80
00FFFFFF00
ENDCHAR
STARTCHAR 005A
ENCODING 90
SWIDTH 974 0
DWIDTH 46 0
BBX 46 46 0 -8
BITMAP
000000000600
000000000700
000000600780
000000E00780
000001E003C0
000003E003C0
000007E003C0
00000FE0C1E0
00001FE1E1E0
00003FE1E1F0
00007FE0E0F0
0000FFE0F0F0
0001FFE0F0F0
0003FFE0F0F8
0003FFE078F8
7FFFFFE078F8
FFFFFFE07878
FFFFFFE07878
FFFFFFE07878
FFFFFFE07878
FFFFFFE07C7C
FFFFFFE07C7C
FFFFFFE07C7C
FFFFFFE07C7C
FFFFFFE07C7C
FFFFFFE07C7C
FFFFFFE07878
FFFFFFE07878
FFFFFFE07878
FFFFFFE07878
FFFFFFE078F8
FFFFFFE078F8
7FFFFFE0F0F8
0003FFE0F0F0
0001FFE0F0F0
0000FFE0E1F0
0000FFE1E1E0
00007FE1E1E0
00003FE1C1E0
00001FE003C0
00000FE003C0
000007E00380
000003E00780
000001E00700
000000E00700
000000600600
ENDCHAR
STARTCHAR 005B
ENCODING 91
SWIDTH 974 0
DWIDTH 46 0
BBX 44 44 1 -7
BITMAP
800000000000
E00000000000
F80000000000
FE0000000000
FF8000000000
FFE000000000
FFF800000000
FFFE00000000
FFFF80000000
FFFFE0000000
FFFFF8000000
FFFFFE000000
FFFFFF800000
FFFFFFE00000
FFFFFFF80000
FFFFFFFE0000
FFFFFFFF8000
FFFFFFFFE000
FFFFFFFFF800
FFFFFFFFFE00
FFFFFFFFFF80
FFFFFFFFFFE0
FFFFFFFFFFF0
FFFFFFFFFF80
FFFFFFFFFE00
FFFFFFFFF800
FFFFFFFFE000
FFFFFFFF8000
FFFFFFFE0000
FFFFFFF80000
FFFFFFE00000
FFFFFF800000
FFFFFE000000
FFFFF8000000
FFFFE0000000
FFFF80000000
FFFE00000000
FFF800000000
FFE000000000
FF8000000000
FE0000000000
F80000000000
E00000000000
800000000000
ENDCHAR
STARTCHAR 005C
ENCODING 92
SWIDTH 974 0
DWIDTH 46 0
BBX 45 46 0 -8
BITMAP
FFFFFFFFFFF8
7FFFFFFFFFF8
7FFFFFFFFFF0
3FFFFFFFFFF0
3FFFFFFFFFE0
1FFFFFFFFFE0
1FFFFFFFFFC0
0FFFFFFFFFC0
0FFFFFFFFF80
07FFFFFFFF80
07FFFFFFFF00
03FFFFFFFF00
03FFFFFFFE00
01FFFFFFFE00
01FFFFFFFC00
00FFFFFFFC00
00FFFFFFF800
007FFFFFF800
007FFFFFF000
003FFFFFF000
003FFFFFE000
001FFFFFE000
001FFFFFC000
000FFFFFC000
000FFFFF8000
0007FFFF8000
0007FFFF0000
0003FFFF0000
0003FFFE0000
0001FFFE0000
0001FFFC0000
0000FFFC0000
0000FFF80000
00007FF80000
00007FF00000
00003FF00000
00003FE00000
00001FE00000
00001FC00000
00000FC00000
00000F800000
000007800000
000007000000
000003000000
000002000000
000002000000
ENDCHAR
STARTCHAR 005D
ENCODING 93
SWIDTH 974 0
DWIDTH 46 0
BBX 46 45 0 -8
BITMAP
00000000000C
00000000003C
0000000000FC
0000000003FC
000000000FFC
000000003FFC
00000000FFFC
00000003FFFC
0000000FFFFC
0000003FFFFC
000000FFFFFC
000003FFFFFC
00000FFFFFFC
00003FFFFFFC
0000FFFFFFFC
0003FFFFFFFC
000FFFFFFFFC
003FFFFFFFFC
00FFFFFFFFFC
03FFFFFFFFFC
0FFFFFFFFFFC
3FFFFFFFFFFC
FFFFFFFFFFFC
1FFFFFFFFFFC
07FFFFFFFFFC
01FFFFFFFFFC
007FFFFFFFFC
001FFFFFFFFC
0007FFFFFFFC
0001FFFFFFFC
00007FFFFFFC
00001FFFFFFC
000007FFFFFC
000001FFFFFC
0000007FFFFC
0000001FFFFC
00000007FFFC
00000001FFFC
000000007FFC
000000001FFC
0000000007FC
0000000001FC
00000000007C
00000000001C
000000000004
ENDCHAR
STARTCHAR 005E
ENCODING 94
SWIDTH 974 0
DWIDTH 46 0
BBX 46 16 0 7
BITMAP
008000000400
010000000200
030000000300
060000000180
0E00000001C0
1E00000001E0
3FFFFFFFFFF0
7FFFFFFFFFF8
FFFFFFFFFFFC
3FFFFFFFFFF0
1E00000001E0
0E00000001C0
060000000180
030000000300
010000000200
008000000400
ENDCHAR
STARTCHAR 005F
ENCODING 95
SWIDTH 974 0
DWIDTH 46 0
BBX 17 48 14 -9
BITMAP
008000
01C000
03E000
07F000
0FF800
1FFC00
3FFE00
71E300
81E080
01E000
01E000
01E000
01E000
01E000
01E000
01E000
01E000
01E000
01E000
01E000
01E000
01E000
01E000
01E000
01E000
01E000
01E000
01E000
01E000
01E000
01E000
01E000
01E000
01E000
01E000
01E000
01E000
01E000
01E000
81E000
61E180
3DEF00
1FFE00
0FFC00
07F800
03F000
01E000
00C000
ENDCHAR
STARTCHAR 0060
ENCODING 96
SWIDTH 974 0
DWIDTH 46 0
BBX 18 48 14 -9
BITMAP
01E000
01E000
01E000
01E000
01E000
01E000
01E000
01E000
01E000
01E000
01E000
01E000
01E000
01E000
01E000
01E000
01E000
01E000
01E000
01E000
01E000
01E000
01E000
01E000
01E000
01E000
01E000
01E000
01E000
01E000
01E000
01E000
01E000
01E000
01E000
01E000
01E000
01E000
01E000
81E040
61E180
3DEF00
1FFE00
0FFC00
07F800
03F000
01E000
00C000
ENDCHAR
STARTCHAR 0061
ENCODING 97
SWIDTH 974 0
DWIDTH 46 0
BBX 46 26 0 2
BITMAP
000000000200
000000000200
000010000600
0003FFC00700
000FFFF00F00
003FFFFC1F00
007FFFFF1F00
00FFFFFFFF80
01FFFFFFFF80
03FFFFFFFF80
03FFFFFFFFC0
07FFFFFFFFC0
0FFFFFFFFFC0
0FE007FFFFC0
1F0001FFFFE0
1E00007FFFE0
3800003FFFE0
3000003FFFE0
4000007FFFF0
800000FFFFF0
800001FFFFF0
000001FFFFF0
000003FFFFF8
000007FFFFF8
00000FFFFFF8
00001FFFFFFC
ENDCHAR
STARTCHAR 0062
ENCODING 98
SWIDTH 974 0
DWIDTH 46 0
BBX 44 26 1 2
BITMAP
020000000000
020000000000
030000000000
030007FC0000
07803FFF0000
07C1FFFFC000
07C7FFFFE000
07EFFFFFF000
0FFFFFFFF800
0FFFFFFFFC00
0FFFFFFFFE00
1FFFFFFFFF00
1FFFFFFFFF00
1FFFFF007F80
1FFFFC000F80
3FFFF00003C0
3FFFE00001C0
3FFFE0000060
3FFFF0000020
7FFFF8000010
7FFFF8000010
7FFFFC000000
7FFFFE000000
FFFFFF000000
FFFFFF800000
FFFFFFC00000
ENDCHAR
STARTCHAR 0063
ENCODING 99
SWIDTH 974 0
DWIDTH 46 0
BBX 44 49 1 -9
BITMAP
00003FC00000
00007FE00000
00007FF00000
00007FF00000
00007FF00000
00007FF00000
00007FF00000
00007FF00000
00007FF00000
00007FF00000
00007FF00000
00007FF00000
00007FF00000
00007FF00000
00007FF00000
00007FF00000
00007FF00000
00007FF00000
00007FF00000
00007FF00000
00007FF00000
00007FF00000
70007FF001C0
FE007FF007E0
FF807FF01FF0
FFE07FF07FF0
FFF87FF1FFF0
FFFE7FFFFFF0
FFFFFFFFFFF0
7FFFFFFFFFE0
3FFFFFFFFFC0
1FFFFFFFFF80
0FFFFFFFFF00
07FFFFFFFE00
03FFFFFFFC00
01FFFFFFF800
00FFFFFFF000
007FFFFFE000
003FFFFFC000
001FFFFF8000
000FFFFF0000
0007FFFE0000
0003FFFC0000
0001FFF80000
0000FFF00000
00007FE00000
00003FC00000
00001F800000
000004000000
ENDCHAR
STARTCHAR 0064
ENCODING 100
SWIDTH 974 0
DWIDTH 46 0
BBX 44 45 1 -8
BITMAP
000000001C00
000000007F00
00000000FF80
00000001FFC0
1C000003FFE0
7F000007FFE0
7F00000FFFF0
FF80001FFFF0
FF80003FFFF0
FFC0007FFFF0
FFC000FFFFE0
FFC001FFFFC0
FFE003FFFF80
FFE007FFFF00
FFE00FFFFE00
FFF01FFFFC00
FFF03FFFF800
FFF07FFFF000
FFF8FFFFE000
FFF9FFFFC000
FFFBFFFF8000
FFFFFFFF0000
FFFFFFFE0000
FFFFFFFC0000
FFFFFFF80000
FFFFFFF00000
FFFFFFE00000
FFFFFFC00000
FFFFFF800000
FFFFFF000000
FFFFFE000000
FFFFFF800000
FFFFFFE00000
FFFFFFFE0000
FFFFFFFF8000
FFFFFFFFF000
FFFFFFFFFC00
FFFFFFFFFE00
FFFFFFFFFF00
FFFFFFFFFF00
FFFFFFFFFF00
FFFFFFFFFF00
7FFFFFFFFE00
7FFFFFFFFC00
1FFFFFFFF800
ENDCHAR
STARTCHAR 0065
ENCODING 101
SWIDTH 974 0
DWIDTH 46 0
BBX 44 45 1 -8
BITMAP
078000000000
0FC000000000
1FE000000000
3FF000000000
7FF800000780
FFFC00000FC0
FFFE00000FE0
FFFF00001FF0
FFFF80001FF0
FFFFC0003FF0
7FFFE0003FF0
3FFFF0007FF0
1FFFF8007FF0
0FFFFC007FF0
07FFFE00FFF0
03FFFF00FFF0
01FFFF80FFF0
00FFFFC0FFF0
007FFFE1FFF0
003FFFF1FFF0
001FFFFBFFF0
000FFFFFFFF0
0007FFFFFFF0
0003FFFFFFF0
0001FFFFFFF0
0000FFFFFFF0
00007FFFFFF0
00003FFFFFF0
00001FFFFFF0
00000FFFFFF0
000007FFFFF0
00001FFFFFF0
0000FFFFFFF0
0007FFFFFFF0
003FFFFFFFF0
00FFFFFFFFF0
03FFFFFFFFF0
07FFFFFFFFF0
0FFFFFFFFFF0
0FFFFFFFFFF0
0FFFFFFFFFF0
0FFFFFFFFFF0
07FFFFFFFFE0
07FFFFFFFFC0
01FFFFFFFF80
ENDCHAR
STARTCHAR 0066
ENCODING 102
SWIDTH 974 0
DWIDTH 46 0
BBX 45 42 0 -6
BITMAP
00001F000000
00003F800000
00007F800000
0000FF800000
0001FF800000
0003FF000000
0007FF000000
000FFF000000
001FFE000000
003FFE000000
007FFC000000
00FFFC000000
01FFF8000000
03FFF8000000
07FFF0000000
0FFFF0000000
1FFFFFFFFFF0
3FFFFFFFFFF8
7FFFFFFFFFF8
FFFFFFFFFFF8
FFFFFFFFFFF8
FFFFFFFFFFF8
7FFFFFFFFFF8
7FFFFFFFFFF8
3FFFFFFFFFF8
1FFFFFFFFFF0
0FFFF0000000
07FFF0000000
03FFF8000000
01FFF8000000
00FFFC000000
007FFC000000
003FFE000000
001FFE000000
000FFF000000
0007FF000000
0003FF800000
0001FF800000
0000FF800000
00007F800000
00001F000000
000004000000
ENDCHAR
STARTCHAR 0067
ENCODING 103
SWIDTH 974 0
DWIDTH 46 0
BBX 46 42 0 -6
BITMAP
000001C00000
000007F00000
000007F80000
000007FC0000
000007FE0000
000007FF0000
000003FF8000
000003FFC000
000001FFE000
000001FFF000
000000FFF800
000000FFFC00
0000007FFE00
0000007FFF00
0000003FFF80
0000003FFFC0
1FFFFFFFFFE0
7FFFFFFFFFF0
FFFFFFFFFFF8
FFFFFFFFFFF8
FFFFFFFFFFFC
FFFFFFFFFFFC
FFFFFFFFFFF8
FFFFFFFFFFF8
FFFFFFFFFFF0
7FFFFFFFFFE0
1FFFFFFFFFC0
0000003FFF80
0000007FFF00
0000007FFE00
000000FFFC00
000000FFF800
000001FFF000
000001FFE000
000003FFC000
000003FF8000
000007FF0000
000007FE0000
000007FC0000
000007F80000
000007F00000
000003E00000
ENDCHAR
STARTCHAR 0068
ENCODING 104
SWIDTH 974 0
DWIDTH 46 0
BBX 44 48 1 -9
BITMAP
00000F000000
00001F800000
00003FC00000
00007FE00000
0000FFF00000
0001FFF80000
0003FFFC0000
0007FFFE0000
000FFFFF0000
001FFFFF8000
003FFFFFC000
007FFFFFE000
00FFFFFFF000
01FFFFFFF800
03FFFFFFFC00
07FFFFFFFE00
0FFFFFFFFF00
1FFFFFFFFF80
3FFFFFFFFFC0
7FFFFFFFFFE0
FFFFFFFFFFF0
FFFE7FF7FFF0
FFF07FF1FFF0
FFC07FF07FF0
FF007FF01FF0
7C007FF003E0
00007FF00000
00007FF00000
00007FF00000
00007FF00000
00007FF00000
00007FF00000
00007FF00000
00007FF00000
00007FF00000
00007FF00000
00007FF00000
00007FF00000
00007FF00000
00007FF00000
00007FF00000
00007FF00000
00007FF00000
00007FF00000
00007FF00000
00007FF00000
00007FF00000
00003FE00000
ENDCHAR
STARTCHAR 0069
ENCODING 105
SWIDTH 974 0
DWIDTH 46 0
BBX 46 46 0 -8
BITMAP
0FFFFFFFFC00
3FFFFFFFFF00
7FFFFFFFFF80
7FFFFFFFFF80
FFFFFFFFFF80
FFFFFFFFFFC0
FFFFFFFFFF80
FFFFFFFFFF80
FFFFFFFFFF00
FFFFFFFFFC00
FFFFFFFFF000
FFFFFFFF8000
FFFFFFFC0000
FFFFFFE00000
FFFFFF000000
FFFFFF000000
FFFFFF800000
FFFFFFC00000
FFFFFFE00000
FFFFFFF00000
FFFFFFF80000
FFFFFFFC0000
FFFFFFFE0000
FFFFFFFF0000
FFFDFFFF8000
FFFCFFFFC000
FFFC7FFFE000
FFF83FFFF000
FFF81FFFF800
FFF80FFFFC00
FFF007FFFE00
FFF003FFFF00
FFF001FFFF80
FFE000FFFFC0
FFE0007FFFE0
FFE0003FFFF0
FFC0001FFFF8
7FC0000FFFF8
7F800007FFFC
3F800003FFF8
1F000001FFF8
00000000FFF0
000000007FE0
000000003FC0
000000001F80
000000000E00
ENDCHAR
STARTCHAR 006A
ENCODING 106
SWIDTH 974 0
DWIDTH 46 0
BBX 46 46 0 -8
BITMAP
00FFFFFFFFC0
03FFFFFFFFF0
07FFFFFFFFF8
07FFFFFFFFF8
0FFFFFFFFFF8
0FFFFFFFFFFC
07FFFFFFFFFC
07FFFFFFFFFC
03FFFFFFFFFC
00FFFFFFFFFC
003FFFFFFFFC
0007FFFFFFFC
0000FFFFFFFC
00001FFFFFFC
000003FFFFFC
000007FFFFFC
00000FFFFFFC
00001FFFFFFC
00003FFFFFFC
00007FFFFFFC
0000FFFFFFFC
0001FFFFFFFC
0003FFFFFFFC
0007FFFFFFFC
000FFFFFFFFC
001FFFFCFFFC
003FFFF8FFFC
007FFFF07FFC
00FFFFE07FFC
01FFFFC07FFC
03FFFF803FFC
07FFFF003FFC
0FFFFE003FFC
1FFFFC001FFC
3FFFF8001FFC
7FFFF0001FFC
7FFFE0000FF8
FFFFC0000FF8
FFFF800007F8
7FFF000007F0
7FFE000003E0
3FFC00000000
1FF800000000
0FF000000000
07E000000000
01C000000000
ENDCHAR
STARTCHAR 006B
ENCODING 107
SWIDTH 974 0
DWIDTH 46 0
BBX 46 40 0 -5
BITMAP
000000400000
000000400000
000000600000
000000700000
000000780000
0000007C0000
0000007E0000
0000007F0000
0000007F8000
0000007FC000
00007FFFE000
0007FFFFF000
003FFFFFF800
00FFFFFFFC00
01FFFFFFFE00
03FFFFFFFF00
07FFFFFFFF80
0FFFFFFFFFC0
0FFFFFFFFFE0
1FFFFFFFFFF0
3FFFFFFFFFFC
3FFFFFFFFFF0
3FFE01FFFFC0
7FF001FFFF00
7FC001FFFE00
7F8001FFF800
7F0003FFE000
7E0003FFC000
7C0003FF0000
F80003FC0000
F80003F00000
F00007E00000
F00007800000
E00006000000
E00004000000
C00000000000
400000000000
400000000000
800000000000
800000000000
ENDCHAR
STARTCHAR 006C
ENCODING 108
SWIDTH 1058 0
DWIDTH 50 0
BBX 50 44 0 -7
BITMAP
00000200000000
00000400000000
00000C00000000
00001C00000000
00003C00000000
00007C00000000
0000FC00000000
0001FC00000000
0003FC00000000
0007FC00000000
000FFC00000000
001FFFFF000000
003FFFFFF00000
007FFFFFFE0000
00FFFFFFFF8000
01FFFFFFFFC000
03FFFFFFFFE000
07FFFFFFFFF000
0FFFFFFFFFF800
1FFFFFFFFFFC00
3FFFFFFFFFFE00
7FFFFFFFFFFE00
FFFFFFFFFFFF00
3FFFFFFFFFFF00
1FFFFF80FFFF80
07FFFF800FFF80
01FFFF8003FF80
007FFFC000FF80
003FFFC0007FC0
000FFFC0003FC0
0003FFC0001FC0
0000FFC0000FC0
00007FC00007C0
00001FE00007C0
000007E00003C0
000001E00003C0
000000E00001C0
000000200001C0
000000000000C0
000000000000C0
00000000000040
00000000000040
00000000000040
00000000000040
ENDCHAR
STARTCHAR 006D
ENCODING 109
SWIDTH 974 0
DWIDTH 46 0
BBX 40 48 3 -9
BITMAP
000FFFF000
000FFFF000
000FFFF000
000FFFF000
000FFFF000
000FFFF000
000FFFF000
000FFFF000
000FFFF000
000FFFF000
000FFFF000
000FFFF000
000FFFF000
000FFFF000
000FFFF000
000FFFF000
000FFFF000
000FFFF000
000FFFF000
000FFFF000
000FFFF000
000FFFF000
000FFFF000
000FFFF000
000FFFF000
000FFFF000
800FFFF001
7FFFFFFFFE
3FFFFFFFFC
1FFFFFFFF8
0FFFFFFFF0
0FFFFFFFE0
07FFFFFFE0
03FFFFFFC0
01FFFFFF80
00FFFFFF00
007FFFFE00
003FFFFC00
001FFFF800
000FFFF000
0007FFE000
0003FFC000
0001FF8000
0000FF0000
0000FE0000
00007E0000
00003C0000
0000180000
ENDCHAR
STARTCHAR 006E
ENCODING 110
SWIDTH 974 0
DWIDTH 46 0
BBX 45 38 0 -4
BITMAP
000008000000
000018000000
000038000000
000078000000
0000F8000000
0001F8000000
0003F8000000
0007F8000000
000FF8000000
001FF8000000
003FF8000000
00FFFFFFFFF8
01FFFFFFFFF8
03FFFFFFFFF8
07FFFFFFFFF8
0FFFFFFFFFF8
1FFFFFFFFFF8
3FFFFFFFFFF8
7FFFFFFFFFF8
FFFFFFFFFFF8
3FFFFFFFFFF8
1FFFFFFFFFF8
0FFFFFFFFFF8
07FFFFFFFFF8
03FFFFFFFFF8
01FFFFFFFFF8
00FFF8000000
003FF8000000
001FF8000000
000FF8000000
0007F8000000
0003F8000000
0001F8000000
0000F8000000
000078000000
000038000000
000018000000
000008000000
ENDCHAR
STARTCHAR 006F
ENCODING 111
SWIDTH 974 0
DWIDTH 46 0
BBX 45 38 0 -4
BITMAP
000000400000
000000600000
000000700000
000000780000
0000007C0000
0000007E0000
0000007F0000
0000007F8000
0000007FC000
0000007FE000
0000007FF000
FFFFFFFFF800
FFFFFFFFFC00
FFFFFFFFFE00
FFFFFFFFFF80
FFFFFFFFFFC0
FFFFFFFFFFE0
FFFFFFFFFFF0
FFFFFFFFFFF8
FFFFFFFFFFF8
FFFFFFFFFFF0
FFFFFFFFFFE0
FFFFFFFFFFC0
FFFFFFFFFF80
FFFFFFFFFF00
FFFFFFFFFC00
0000007FF800
0000007FF000
0000007FE000
0000007FC000
0000007F8000
0000007F0000
0000007E0000
0000007C0000
000000780000
000000700000
000000600000
000000400000
ENDCHAR
STARTCHAR 0070
ENCODING 112
SWIDTH 974 0
DWIDTH 46 0
BBX 40 48 3 -9
BITMAP
0000080000
0000180000
00003C0000
00007E0000
0000FF0000
0001FF8000
0003FFC000
0007FFE000
000FFFF000
001FFFF800
003FFFFC00
007FFFFE00
007FFFFE00
00FFFFFF00
01FFFFFF80
03FFFFFFC0
07FFFFFFE0
0FFFFFFFF0
1FFFFFFFF8
3FFFFFFFFC
7FFFFFFFFE
FFFFFFFFFF
000FFFF000
000FFFF000
000FFFF000
000FFFF000
000FFFF000
000FFFF000
000FFFF000
000FFFF000
000FFFF000
000FFFF000
000FFFF000
000FFFF000
000FFFF000
000FFFF000
000FFFF000
000FFFF000
000FFFF000
000FFFF000
000FFFF000
000FFFF000
000FFFF000
000FFFF000
000FFFF000
000FFFF000
000FFFF000
000FFFF000
ENDCHAR
STARTCHAR 0071
ENCODING 113
SWIDTH 974 0
DWIDTH 46 0
BBX 42 48 2 -9
BITMAP
000000080000
000000080000
0000001C0000
0000001E0000
0000003E0000
0000007F0000
0000007F0000
000000FF8000
000000FF8000
000001FFC000
000001FFE000
000003FFE000
000007FFF000
FF0007FFF000
FF000FFFF800
FF000FFFFC00
FF001FFFFC00
FF001FFFFE00
FF003FFFFE00
FF007FFFFF00
FF007FFFFF00
FF00FFFFFF80
FF00007F0040
FF00007F0000
FF00007F0000
FF00007F0000
FF00007F0000
FF00007F0000
FF00007F0000
FF00007F0000
FF00007F0000
FF00007F0000
FF00007F0000
7F00007F0000
7F0000FF0000
7F8000FF0000
7F8001FF0000
7FC001FE0000
3FE003FE0000
3FF00FFE0000
1FFF7FFC0000
1FFFFFF80000
0FFFFFF80000
07FFFFF00000
03FFFFE00000
00FFFF800000
007FFF000000
000FF8000000
ENDCHAR
STARTCHAR 0072
ENCODING 114
SWIDTH 974 0
DWIDTH 46 0
BBX 46 38 0 -4
BITMAP
000008000000
000038000000
000078000000
0001F8000000
0007F8000000
001FF8000000
003FF8000000
00FFF8000000
03FFFFFE0000
07FFFFFFF000
1FFFFFFFFC00
FFFFFFFFFF00
7FFFFFFFFF80
1FFFFFFFFFC0
07FFFFFFFFE0
03FFFFFFFFE0
00FFF8003FF0
003FF8000FF0
000FF80007F8
0007F80007F8
0001F80003F8
0000780003F8
0000180003F8
0000080003FC
0000000003F8
0000000003F8
0000000003F8
0000000007F8
000000000FF8
000000001FF0
000000003FF0
000FFFFFFFE0
000FFFFFFFC0
000FFFFFFFC0
000FFFFFFF80
000FFFFFFE00
000FFFFFFC00
000FFFFFF000
ENDCHAR
STARTCHAR 0073
ENCODING 115
SWIDTH 974 0
DWIDTH 46 0
BBX 45 35 0 -3
BITMAP
0001FFFE0000
000FFFFFC000
003FFFFFF000
00FFFFFFFC00
03FFFFFFFF00
07FFFFFFFF80
0FFFFFFFFFC0
1FFFFFFFFFE0
3FFFFFFFFFF0
3FFFFFFFFFF0
7FFFFFFFFFF8
7FFFFFFFFFF8
7FFFFFFFFFF8
FFFFFFFFFFF8
FFFFFFFFFFF8
FFFFFFFFFFF8
FFFFFFFFFFF8
7FFFFFFFFFF8
7FFFFFFFFFF8
7FFFFFFFFFF0
3FFFFFFFFFF0
1FFFFFFFFFE0
1FFFFFFFFFC0
0FFFFFFFFF80
03FFFFFFFF00
01FFFFFFFC00
00FFFFFFF800
003FFFFFE000
0007FFFF0000
0000FFE00000
0000FC000000
0000F8000000
0001F0000000
0003C0000000
000E00000000
ENDCHAR
STARTCHAR 0074
ENCODING 116
SWIDTH 974 0
DWIDTH 46 0
BBX 46 38 0 -4
BITMAP
3FFFFFFFFFF0
7FFFFFFFFFF8
FFFFFFFFFFF8
FFFFFFFFFFFC
FFFFFFFFFFFC
FFFFFFFFFFFC
FFFFFFFFFFFC
FFFFFFFFFFFC
FFFFFFFFFFFC
FFFFFFFFFFFC
FFFFFFFFFFFC
FFFFFFFFFFFC
FFFFFFFFFFFC
FFFFFFFFFFFC
FFFFFFFFFFFC
FFFFFFFFFFFC
FFFFFFFFFFFC
FFFFFFFFFFFC
FFFFFFFFFFFC
FFFFFFFFFFFC
FFFFFFFFFFFC
FFFFFFFFFFFC
FFFFFFFFFFFC
FFFFFFFFFFFC
FFFFFFFFFFFC
FFFFFFFFFFFC
FFFFFFFFFFFC
7FFFFFFFFFF8
7FFFFFFFFFF8
00001FC00000
00001F800000
00001E000000
00003C000000
000038000000
000070000000
000060000000
0000C0000000
000080000000
ENDCHAR
STARTCHAR 0075
ENCODING 117
SWIDTH 974 0
DWIDTH 46 0
BBX 46 36 0 -3
BITMAP
00000FC00000
0003FFFF0000
001FFFFFE000
007FFFFFF800
01FFFFFFFC00
03FFFFFFFF00
07FFFFFFFF80
0FFFFFFFFFC0
1FFFFFFFFFE0
3FFFFFFFFFF0
7FFFFFFFFFF0
7FFFFFFFFFF8
7FFFFFFFFFF8
FFFFFFFFFFF8
FFFFFFFFFFF8
FFFFFFFFFFFC
FFFFFFFFFFF8
FFFFFFFFFFF8
7FFFFFFFFFF8
7FFFFFFFFFF8
7FFFFFFFFFF0
3FFFFFFFFFF0
1FFFFFFFFFE0
0FFFFFFFFFC0
07FFFFFFFF80
03FFFFFFFF00
01FFFFFFFE00
007FFFFFF800
000FFFFFE000
0001FFFF0000
000007FC0000
000000FC0000
0000007C0000
0000003E0000
0000000F0000
00000000C000
ENDCHAR
STARTCHAR 0076
ENCODING 118
SWIDTH 974 0
DWIDTH 46 0
BBX 45 38 0 -4
BITMAP
3FFFFFFFFFF0
7FFFFFFFFFF8
FFFFFFFFFFF8
FFFFFFFFFFF8
FFFFFFFFFFF8
FFFFFFFFFFF8
FFFFFFFFFFF8
FFFFFFFFFFF8
FFFFFFFFFFF8
FFFFFFFFFFF8
FFFFFFFFFFF8
FFFFFFFFFFF8
FFFFFFFFFFF8
FFFFFFFFFFF8
FFFFFFFFFFF8
FFFFFFFFFFF8
FFFFFFFFFFF8
FFFFFFFFFFF8
FFFFFFFFFFF8
FFFFFFFFFFF8
FFFFFFFFFFF8
FFFFFFFFFFF8
FFFFFFFFFFF8
FFFFFFFFFFF8
FFFFFFFFFFF8
FFFFFFFFFFF8
FFFFFFFFFFF8
FFFFFFFFFFF8
7FFFFFFFFFF8
00000FC00000
000007E00000
000003E00000
000001F00000
000000700000
000000380000
000000180000
000000080000
000000040000
ENDCHAR
STARTCHAR 0077
ENCODING 119
SWIDTH 974 0
DWIDTH 46 0
BBX 46 45 0 -8
BITMAP
00000FC00000
00001FE00000
00001FE00000
00001FE00000
00001FE00000
00F01FE07C00
01FCFFF0FE00
03FFFFFDFF00
03FFFFFFFF00
03FFFFFFFF00
03FFFFFFFF00
03FFFFFFFF00
01FFFFFFFE00
00FFFFFFFC00
00FFFFFFF800
01FFF03FF800
01FFC01FF800
03FF8007FC00
3FFF8007FFF0
7FFF0003FFF8
7FFF0003FFF8
FFFF0003FFF8
FFFF0003FFFC
7FFF0003FFF8
7FFF0003FFF8
3FFF0007FFF0
0FFF8007FF80
01FFC00FF800
00FFE03FF000
00FFFFFFF800
00FFFFFFFC00
01FFFFFFFE00
03FFFFFFFE00
03FFFFFFFF00
03FFFFFFFF00
03FFFFFFFF00
03FE7FE1FF00
03FC1FE0FE00
01F81FE07C00
00001FE00000
00001FE00000
00001FE00000
00001FE00000
00000FC00000
000003000000
ENDCHAR
STARTCHAR 0078
ENCODING 120
SWIDTH 974 0
DWIDTH 46 0
BBX 45 38 0 -4
BITMAP
003800000000
0E3800000000
0F7800000000
0FF800000000
07FFC0000000
6FFFC0000000
FF1F80000000
FE0F00300000
7C0F80780000
1C0FC0FC3E00
1E0FC0FC3E00
3F1FE0FF7F00
7FFFC0FFFE00
7FFE31FFFE00
33FE7FFFFC00
03FEFFFFFC00
038EFFFFFE60
0384FFFFFFF8
00007FE07FF8
00001FC03FF8
00001FC01FF8
00003F801FF8
00003F801FC0
0000FF801F80
0001FFC01F00
0001FFC03F80
0001FFE07FE0
0001FFF9FFF0
0000FFFFFFF0
000007FFFFF0
000003FFFBF0
000003FFF1E0
000007FFF000
000007F3F000
000007E3F800
000003C1F000
00000181F000
00000000E000
ENDCHAR
STARTCHAR 0079
ENCODING 121
SWIDTH 974 0
DWIDTH 46 0
BBX 46 40 0 -5
BITMAP
0001FC000000
0007FF001E00
001FFFC0FF80
003FFFE0FFF0
007FF019FF80
00FFC001FC00
01FFC003F800
01FFC003FC78
03FFC003FFF0
03FFE003FFF0
07FFF007FFE0
3FEFF807FFC0
7F83FC0FFF00
FF81FE1FFC00
7F807F3FFE00
3F803FFFFE00
1F001FFFC100
07000FFF0000
000007FE0000
000007FC0000
00000FFE0000
00003FFF0000
00007FFF8000
0000FFFFC000
0001FFBFE000
0007FF1FF000
000FFC0FF800
001FF807FC00
003FF003FE00
00FFE001FF00
01FFC000FF80
03FF80007FC0
07FF00007FE0
0FFE00003FF0
1FFC00001FFC
1FF800000FF8
1FF0000007F0
0FE0000003E0
07C0000001C0
000000000080
ENDCHAR
STARTCHAR 007A
ENCODING 122
SWIDTH 974 0
DWIDTH 46 0
BBX 46 46 0 -8
BITMAP
000000080000
000000100000
000000300000
000000600000
000000E00000
000001E00000
000003E00000
000007E00000
000007C00000
000007C00000
000007C00000
00000FC00000
00000FC00000
00000F800000
00000F800000
00001F800000
00001F800000
00001F000004
00001F000038
00001F0003F0
01F03F007FE0
0FFC3F0FFFC0
1FFE3EFFFF80
3FFF3FFFFF00
7F3FFFFFFE00
7C1FFFFFE000
F81FFFFE0000
F81FFFC00000
FC7FFC000000
7FFEFC000000
7FFEFE000000
3FFDFF000000
1FF3FF800000
0103FF800000
0007EFC00000
0007C7C00000
000F83C00000
000F87C00000
000F87C00000
000F8F800000
000FFF800000
0007FF000000
0007FF000000
0003FE000000
0001FC000000
000060000000
ENDCHAR
STARTCHAR 007B
ENCODING 123
SWIDTH 974 0
DWIDTH 46 0
BBX 46 42 0 -6
BITMAP
00000003FE00
00000001F000
00000001FC00
00000001FE00
00000000FF00
000000009F00
000000008F80
0000000087C0
0000000003C0
0000000003E0
0000000001F0
0000000000F0
0000000000F0
0000000000F8
000000000078
000000000078
000000000078
000000000078
000000000038
00000000003C
F00000000038
F00000000078
F00000000078
780000000078
780000000078
780000000078
7C00000000F0
3C00000000F0
3C00000001F0
1E00000001E0
1F00000003E0
0F80000007C0
0F8000000FC0
07C000001F80
03F000003F00
01F800007E00
00FE0001FC00
007FC00FF800
003FFFFFE000
000FFFFFC000
0003FFFF0000
00007FF80000
ENDCHAR
STARTCHAR 007C
ENCODING 124
SWIDTH 974 0
DWIDTH 46 0
BBX 45 42 0 -6
BITMAP
01FF00000000
003E00000000
00FE00000000
01FC00000000
03FC00000000
07EC00000000
07C400000000
0F8400000000
1F0000000000
1F0000000000
3E0000000000
3C0000000000
3C0000000000
780000000000
780000000000
780000000000
780000000000
F00000000000
F00000000000
F00000000000
F00000000038
F00000000078
F00000000078
780000000078
780000000078
780000000078
7C00000000F8
3C00000000F0
3C00000001F0
3E00000001E0
1F00000003E0
1F00000007C0
0F80000007C0
07C000000F80
03F000003F00
03F800007E00
00FE0001FC00
007F8007F800
003FFFFFF000
000FFFFFC000
0003FFFF0000
0000FFF80000
ENDCHAR
STARTCHAR 007D
ENCODING 125
SWIDTH 487 0
DWIDTH 23 0
BBX 0 0 0 0
BITMAP
ENDCHAR
STARTCHAR 007E
ENCODING 126
SWIDTH 487 0
DWIDTH 23 0
BBX 0 0 0 0
BITMAP
ENDCHAR
STARTCHAR 00A0
ENCODING 160
SWIDTH 254 0
DWIDTH 12 0
BBX 0 0 0 0
BITMAP
ENDCHAR
STARTCHAR 00A1
ENCODING 161
SWIDTH 317 0
DWIDTH 15 0
BBX 0 0 0 0
BITMAP
ENDCHAR
STARTCHAR 00A2
ENCODING 162
SWIDTH 550 0
DWIDTH 26 0
BBX 0 0 0 0
BITMAP
ENDCHAR
STARTCHAR 00A3
ENCODING 163
SWIDTH 487 0
DWIDTH 23 0
BBX 0 0 0 0
BITMAP
ENDCHAR
STARTCHAR 00A4
ENCODING 164
SWIDTH 487 0
DWIDTH 23 0
BBX 0 0 0 0
BITMAP
ENDCHAR
STARTCHAR 00A5
ENCODING 165
SWIDTH 614 0
DWIDTH 29 0
BBX 0 0 0 0
BITMAP
ENDCHAR
STARTCHAR 00A6
ENCODING 166
SWIDTH 487 0
DWIDTH 23 0
BBX 0 0 0 0
BITMAP
ENDCHAR
STARTCHAR 00A7
ENCODING 167
SWIDTH 487 0
DWIDTH 23 0
BBX 0 0 0 0
BITMAP
ENDCHAR
STARTCHAR 00A8
ENCODING 168
SWIDTH 508 0
DWIDTH 24 0
BBX 0 0 0 0
BITMAP
ENDCHAR
STARTCHAR 00A9
ENCODING 169
SWIDTH 804 0
DWIDTH 38 0
BBX 0 0 0 0
BITMAP
ENDCHAR
STARTCHAR 00AA
ENCODING 170
SWIDTH 317 0
DWIDTH 15 0
BBX 0 0 0 0
BITMAP
ENDCHAR
STARTCHAR 00AB
ENCODING 171
SWIDTH 465 0
DWIDTH 22 0
BBX 0 0 0 0
BITMAP
ENDCHAR
STARTCHAR 00AC
ENCODING 172
SWIDTH 487 0
DWIDTH 23 0
BBX 0 0 0 0
BITMAP
ENDCHAR
STARTCHAR 00AD
ENCODING 173
SWIDTH 974 0
DWIDTH 46 0
BBX 46 46 0 -8
BITMAP
000007000000
0000FFFC0000
0007FFFF0000
001FF87FC000
003F0003F000
007C0000F800
01F000003C00
03E000001E00
03C000000F00
07E000020780
0F70000703C0
1E38000F01C0
1C1C001F00E0
3C0E003F00E0
3807007F0070
380380FF0070
700041FF0078
7001FFFF0038
7003FFFF0038
7003FFFF0038
E003FFFF0038
E003FFFF0018
E003FFFF001C
E003FFFF001C
E003FFFF0018
E003FFFF0038
7003FFFF0038
7003FFFF0038
7001FFFF0038
700001FF0038
380000FF0070
3800007F0070
3C00003F40E0
1C00001F60E0
1E00000F71C0
0F0000073BC0
078000021F80
03C000000F00
03E000001E00
01F000003C00
007C0000F800
003F0003F000
001FF03FC000
0007FFFF8000
0000FFFC0000
000007000000
ENDCHAR
STARTCHAR 00AE
ENCODING 174
SWIDTH 804 0
DWIDTH 38 0
BBX 0 0 0 0
BITMAP
ENDCHAR
STARTCHAR 00AF
ENCODING 175
SWIDTH 317 0
DWIDTH 15 0
BBX 0 0 0 0
BITMAP
ENDCHAR
STARTCHAR 00B0
ENCODING 176
SWIDTH 317 0
DWIDTH 15 0
BBX 0 0 0 0
BITMAP
ENDCHAR
STARTCHAR 00B1
ENCODING 177
SWIDTH 487 0
DWIDTH 23 0
BBX 0 0 0 0
BITMAP
ENDCHAR
STARTCHAR 00B2
ENCODING 178
SWIDTH 487 0
DWIDTH 23 0
BBX 0 0 0 0
BITMAP
ENDCHAR
STARTCHAR 00B3
ENCODING 179
SWIDTH 487 0
DWIDTH 23 0
BBX 0 0 0 0
BITMAP
ENDCHAR
STARTCHAR 00B4
ENCODING 180
SWIDTH 508 0
DWIDTH 24 0
BBX 0 0 0 0
BITMAP
ENDCHAR
STARTCHAR 00B5
ENCODING 181
SWIDTH 571 0
DWIDTH 27 0
BBX 0 0 0 0
BITMAP
ENDCHAR
STARTCHAR 00B6
ENCODING 182
SWIDTH 508 0
DWIDTH 24 0
BBX 0 0 0 0
BITMAP
ENDCHAR
STARTCHAR 00B7
ENCODING 183
SWIDTH 254 0
DWIDTH 12 0
BBX 0 0 0 0
BITMAP
ENDCHAR
STARTCHAR 00B8
ENCODING 184
SWIDTH 508 0
DWIDTH 24 0
BBX 0 0 0 0
BITMAP
ENDCHAR
STARTCHAR 00B9
ENCODING 185
SWIDTH 487 0
DWIDTH 23 0
BBX 0 0 0 0
BITMAP
ENDCHAR
STARTCHAR 00BA
ENCODING 186
SWIDTH 338 0
DWIDTH 16 0
BBX 0 0 0 0
BITMAP
ENDCHAR
STARTCHAR 00BB
ENCODING 187
SWIDTH 465 0
DWIDTH 22 0
BBX 0 0 0 0
BITMAP
ENDCHAR
STARTCHAR 00BC
ENCODING 188
SWIDTH 825 0
DWIDTH 39 0
BBX 0 0 0 0
BITMAP
ENDCHAR
STARTCHAR 00BD
ENCODING 189
SWIDTH 952 0
DWIDTH 45 0
BBX 0 0 0 0
BITMAP
ENDCHAR
STARTCHAR 00BE
ENCODING 190
SWIDTH 825 0
DWIDTH 39 0
BBX 0 0 0 0
BITMAP
ENDCHAR
STARTCHAR 00BF
ENCODING 191
SWIDTH 360 0
DWIDTH 17 0
BBX 0 0 0 0
BITMAP
ENDCHAR
STARTCHAR 00C0
ENCODING 192
SWIDTH 741 0
DWIDTH 35 0
BBX 0 0 0 0
BITMAP
ENDCHAR
STARTCHAR 00C1
ENCODING 193
SWIDTH 741 0
DWIDTH 35 0
BBX 0 0 0 0
BITMAP
ENDCHAR
STARTCHAR 00C2
ENCODING 194
SWIDTH 741 0
DWIDTH 35 0
BBX 0 0 0 0
BITMAP
ENDCHAR
STARTCHAR 00C3
ENCODING 195
SWIDTH 741 0
DWIDTH 35 0
BBX 0 0 0 0
BITMAP
ENDCHAR
STARTCHAR 00C4
ENCODING 196
SWIDTH 741 0
DWIDTH 35 0
BBX 0 0 0 0
BITMAP
ENDCHAR
STARTCHAR 00C5
ENCODING 197
SWIDTH 741 0
DWIDTH 35 0
BBX 0 0 0 0
BITMAP
ENDCHAR
STARTCHAR 00C6
ENCODING 198
SWIDTH 1037 0
DWIDTH 49 0
BBX 0 0 0 0
BITMAP
ENDCHAR
STARTCHAR 00C7
ENCODING 199
SWIDTH 677 0
DWIDTH 32 0
BBX 0 0 0 0
BITMAP
ENDCHAR
STARTCHAR 00C8
ENCODING 200
SWIDTH 550 0
DWIDTH 26 0
BBX 0 0 0 0
BITMAP
ENDCHAR
STARTCHAR 00C9
ENCODING 201
SWIDTH 550 0
DWIDTH 26 0
BBX 0 0 0 0
BITMAP
ENDCHAR
STARTCHAR 00CA
ENCODING 202
SWIDTH 550 0
DWIDTH 26 0
BBX 0 0 0 0
BITMAP
ENDCHAR
STARTCHAR 00CB
ENCODING 203
SWIDTH 550 0
DWIDTH 26 0
BBX 0 0 0 0
BITMAP
ENDCHAR
STARTCHAR 00CC
ENCODING 204
SWIDTH 317 0
DWIDTH 15 0
BBX 0 0 0 0
BITMAP
ENDCHAR
STARTCHAR 00CD
ENCODING 205
SWIDTH 317 0
DWIDTH 15 0
BBX 0 0 0 0
BITMAP
ENDCHAR
STARTCHAR 00CE
ENCODING 206
SWIDTH 317 0
DWIDTH 15 0
BBX 0 0 0 0
BITMAP
ENDCHAR
STARTCHAR 00CF
ENCODING 207
SWIDTH 317 0
DWIDTH 15 0
BBX 0 0 0 0
BITMAP
ENDCHAR
STARTCHAR 00D0
ENCODING 208
SWIDTH 741 0
DWIDTH 35 0
BBX 0 0 0 0
BITMAP
ENDCHAR
STARTCHAR 00D1
ENCODING 209
SWIDTH 762 0
DWIDTH 36 0
BBX 0 0 0 0
BITMAP
ENDCHAR
STARTCHAR 00D2
ENCODING 210
SWIDTH 783 0
DWIDTH 37 0
BBX 0 0 0 0
BITMAP
ENDCHAR
STARTCHAR 00D3
ENCODING 211
SWIDTH 783 0
DWIDTH 37 0
BBX 0 0 0 0
BITMAP
ENDCHAR
STARTCHAR 00D4
ENCODING 212
SWIDTH 783 0
DWIDTH 37 0
BBX 0 0 0 0
BITMAP
ENDCHAR
STARTCHAR 00D5
ENCODING 213
SWIDTH 783 0
DWIDTH 37 0
BBX 0 0 0 0
BITMAP
ENDCHAR
STARTCHAR 00D6
ENCODING 214
SWIDTH 783 0
DWIDTH 37 0
BBX 0 0 0 0
BITMAP
ENDCHAR
STARTCHAR 00D7
ENCODING 215
SWIDTH 487 0
DWIDTH 23 0
BBX 0 0 0 0
BITMAP
ENDCHAR
STARTCHAR 00D8
ENCODING 216
SWIDTH 783 0
DWIDTH 37 0
BBX 0 0 0 0
BITMAP
ENDCHAR
STARTCHAR 00D9
ENCODING 217
SWIDTH 720 0
DWIDTH 34 0
BBX 0 0 0 0
BITMAP
ENDCHAR
STARTCHAR 00DA
ENCODING 218
SWIDTH 720 0
DWIDTH 34 0
BBX 0 0 0 0
BITMAP
ENDCHAR
STARTCHAR 00DB
ENCODING 219
SWIDTH 720 0
DWIDTH 34 0
BBX 0 0 0 0
BITMAP
ENDCHAR
STARTCHAR 00DC
ENCODING 220
SWIDTH 720 0
DWIDTH 34 0
BBX 0 0 0 0
BITMAP
ENDCHAR
STARTCHAR 00DD
ENCODING 221
SWIDTH 592 0
DWIDTH 28 0
BBX 0 0 0 0
BITMAP
ENDCHAR
STARTCHAR 00DE
ENCODING 222
SWIDTH 550 0
DWIDTH 26 0
BBX 0 0 0 0
BITMAP
ENDCHAR
STARTCHAR 00DF
ENCODING 223
SWIDTH 614 0
DWIDTH 29 0
BBX 0 0 0 0
BITMAP
ENDCHAR
STARTCHAR 00E0
ENCODING 224
SWIDTH 444 0
DWIDTH 21 0
BBX 0 0 0 0
BITMAP
ENDCHAR
STARTCHAR 00E1
ENCODING 225
SWIDTH 444 0
DWIDTH 21 0
BBX 0 0 0 0
BITMAP
ENDCHAR
STARTCHAR 00E2
ENCODING 226
SWIDTH 444 0
DWIDTH 21 0
BBX 0 0 0 0
BITMAP
ENDCHAR
STARTCHAR 00E3
ENCODING 227
SWIDTH 444 0
DWIDTH 21 0
BBX 0 0 0 0
BITMAP
ENDCHAR
STARTCHAR 00E4
ENCODING 228
SWIDTH 444 0
DWIDTH 21 0
BBX 0 0 0 0
BITMAP
ENDCHAR
STARTCHAR 00E5
ENCODING 229
SWIDTH 444 0
DWIDTH 21 0
BBX 0 0 0 0
BITMAP
ENDCHAR
STARTCHAR 00E6
ENCODING 230
SWIDTH 698 0
DWIDTH 33 0
BBX 0 0 0 0
BITMAP
ENDCHAR
STARTCHAR 00E7
ENCODING 231
SWIDTH 444 0
DWIDTH 21 0
BBX 0 0 0 0
BITMAP
ENDCHAR
STARTCHAR 00E8
ENCODING 232
SWIDTH 444 0
DWIDTH 21 0
BBX 0 0 0 0
BITMAP
ENDCHAR
STARTCHAR 00E9
ENCODING 233
SWIDTH 444 0
DWIDTH 21 0
BBX 0 0 0 0
BITMAP
ENDCHAR
STARTCHAR 00EA
ENCODING 234
SWIDTH 444 0
DWIDTH 21 0
BBX 0 0 0 0
BITMAP
ENDCHAR
STARTCHAR 00EB
ENCODING 235
SWIDTH 444 0
DWIDTH 21 0
BBX 0 0 0 0
BITMAP
ENDCHAR
STARTCHAR 00EC
ENCODING 236
SWIDTH 254 0
DWIDTH 12 0
BBX 0 0 0 0
BITMAP
ENDCHAR
STARTCHAR 00ED
ENCODING 237
SWIDTH 254 0
DWIDTH 12 0
BBX 0 0 0 0
BITMAP
ENDCHAR
STARTCHAR 00EE
ENCODING 238
SWIDTH 254 0
DWIDTH 12 0
BBX 0 0 0 0
BITMAP
ENDCHAR
STARTCHAR 00EF
ENCODING 239
SWIDTH 254 0
DWIDTH 12 0
BBX 0 0 0 0
BITMAP
ENDCHAR
STARTCHAR 00F0
ENCODING 240
SWIDTH 550 0
DWIDTH 26 0
BBX 0 0 0 0
BITMAP
ENDCHAR
STARTCHAR 00F1
ENCODING 241
SWIDTH 529 0
DWIDTH 25 0
BBX 0 0 0 0
BITMAP
ENDCHAR
STARTCHAR 00F2
ENCODING 242
SWIDTH 487 0
DWIDTH 23 0
BBX 0 0 0 0
BITMAP
ENDCHAR
STARTCHAR 00F3
ENCODING 243
SWIDTH 487 0
DWIDTH 23 0
BBX 0 0 0 0
BITMAP
ENDCHAR
STARTCHAR 00F4
ENCODING 244
SWIDTH 487 0
DWIDTH 23 0
BBX 0 0 0 0
BITMAP
ENDCHAR
STARTCHAR 00F5
ENCODING 245
SWIDTH 487 0
DWIDTH 23 0
BBX 0 0 0 0
BITMAP
ENDCHAR
STARTCHAR 00F6
ENCODING 246
SWIDTH 487 0
DWIDTH 23 0
BBX 0 0 0 0
BITMAP
ENDCHAR
STARTCHAR 00F7
ENCODING 247
SWIDTH 487 0
DWIDTH 23 0
BBX 0 0 0 0
BITMAP
ENDCHAR
STARTCHAR 00F8
ENCODING 248
SWIDTH 487 0
DWIDTH 23 0
BBX 0 0 0 0
BITMAP
ENDCHAR
STARTCHAR 00F9
ENCODING 249
SWIDTH 508 0
DWIDTH 24 0
BBX 0 0 0 0
BITMAP
ENDCHAR
STARTCHAR 00FA
ENCODING 250
SWIDTH 508 0
DWIDTH 24 0
BBX 0 0 0 0
BITMAP
ENDCHAR
STARTCHAR 00FB
ENCODING 251
SWIDTH 508 0
DWIDTH 24 0
BBX 0 0 0 0
BITMAP
ENDCHAR
STARTCHAR 00FC
ENCODING 252
SWIDTH 508 0
DWIDTH 24 0
BBX 0 0 0 0
BITMAP
ENDCHAR
STARTCHAR 00FD
ENCODING 253
SWIDTH 423 0
DWIDTH 20 0
BBX 0 0 0 0
BITMAP
ENDCHAR
STARTCHAR 00FE
ENCODING 254
SWIDTH 487 0
DWIDTH 23 0
BBX 0 0 0 0
BITMAP
ENDCHAR
STARTCHAR 00FF
ENCODING 255
SWIDTH 423 0
DWIDTH 20 0
BBX 0 0 0 0
BITMAP
ENDCHAR
STARTCHAR 0131
ENCODING 305
SWIDTH 254 0
DWIDTH 12 0
BBX 0 0 0 0
BITMAP
ENDCHAR
STARTCHAR 02C6
ENCODING 710
SWIDTH 508 0
DWIDTH 24 0
BBX 0 0 0 0
BITMAP
ENDCHAR
STARTCHAR 02C7
ENCODING 711
SWIDTH 508 0
DWIDTH 24 0
BBX 0 0 0 0
BITMAP
ENDCHAR
STARTCHAR 02C9
ENCODING 713
SWIDTH 508 0
DWIDTH 24 0
BBX 0 0 0 0
BITMAP
ENDCHAR
STARTCHAR 02D8
ENCODING 728
SWIDTH 508 0
DWIDTH 24 0
BBX 0 0 0 0
BITMAP
ENDCHAR
STARTCHAR 02D9
ENCODING 729
SWIDTH 508 0
DWIDTH 24 0
BBX 0 0 0 0
BITMAP
ENDCHAR
STARTCHAR 02DA
ENCODING 730
SWIDTH 508 0
DWIDTH 24 0
BBX 0 0 0 0
BITMAP
ENDCHAR
STARTCHAR 02DB
ENCODING 731
SWIDTH 508 0
DWIDTH 24 0
BBX 0 0 0 0
BITMAP
ENDCHAR
STARTCHAR 02DC
ENCODING 732
SWIDTH 508 0
DWIDTH 24 0
BBX 0 0 0 0
BITMAP
ENDCHAR
STARTCHAR 02DD
ENCODING 733
SWIDTH 508 0
DWIDTH 24 0
BBX 0 0 0 0
BITMAP
ENDCHAR
STARTCHAR 037E
ENCODING 894
SWIDTH 974 0
DWIDTH 46 0
BBX 46 46 0 -8
BITMAP
000007800000
000007800000
000007800000
000007800000
000007800000
000007800000
000007800000
000007800000
000007800000
000007800000
000007800000
000007800000
000007800000
000007800000
000007800000
000007800000
000007800000
000007800000
000007800000
000007800000
000007800000
FFFFFFFFFFFC
FFFFFFFFFFFC
FFFFFFFFFFFC
FFFFFFFFFFFC
000007800000
000007800000
000007800000
000007800000
000007800000
000007800000
000007800000
000007800000
000007800000
000007800000
000007800000
000007800000
000007800000
000007800000
000007800000
000007800000
000007800000
000007800000
000007800000
000007800000
000007800000
ENDCHAR
STARTCHAR 2013
ENCODING 8211
SWIDTH 529 0
DWIDTH 25 0
BBX 0 0 0 0
BITMAP
ENDCHAR
STARTCHAR 2014
ENCODING 8212
SWIDTH 995 0
DWIDTH 47 0
BBX 0 0 0 0
BITMAP
ENDCHAR
STARTCHAR 2018
ENCODING 8216
SWIDTH 275 0
DWIDTH 13 0
BBX 0 0 0 0
BITMAP
ENDCHAR
STARTCHAR 2019
ENCODING 8217
SWIDTH 275 0
DWIDTH 13 0
BBX 0 0 0 0
BITMAP
ENDCHAR
STARTCHAR 201A
ENCODING 8218
SWIDTH 275 0
DWIDTH 13 0
BBX 0 0 0 0
BITMAP
ENDCHAR
STARTCHAR 201C
ENCODING 8220
SWIDTH 444 0
DWIDTH 21 0
BBX 0 0 0 0
BITMAP
ENDCHAR
STARTCHAR 201D
ENCODING 8221
SWIDTH 444 0
DWIDTH 21 0
BBX 0 0 0 0
BITMAP
ENDCHAR
STARTCHAR 201E
ENCODING 8222
SWIDTH 444 0
DWIDTH 21 0
BBX 0 0 0 0
BITMAP
ENDCHAR
STARTCHAR 2020
ENCODING 8224
SWIDTH 487 0
DWIDTH 23 0
BBX 0 0 0 0
BITMAP
ENDCHAR
STARTCHAR 2021
ENCODING 8225
SWIDTH 487 0
DWIDTH 23 0
BBX 0 0 0 0
BITMAP
ENDCHAR
STARTCHAR 2022
ENCODING 8226
SWIDTH 508 0
DWIDTH 24 0
BBX 0 0 0 0
BITMAP
ENDCHAR
STARTCHAR 2026
ENCODING 8230
SWIDTH 995 0
DWIDTH 47 0
BBX 0 0 0 0
BITMAP
ENDCHAR
STARTCHAR 2039
ENCODING 8249
SWIDTH 296 0
DWIDTH 14 0
BBX 0 0 0 0
BITMAP
ENDCHAR
STARTCHAR 203A
ENCODING 8250
SWIDTH 296 0
DWIDTH 14 0
BBX 0 0 0 0
BITMAP
ENDCHAR
STARTCHAR 2044
ENCODING 8260
SWIDTH 169 0
DWIDTH 8 0
BBX 0 0 0 0
BITMAP
ENDCHAR
STARTCHAR 20A3
ENCODING 8355
SWIDTH 487 0
DWIDTH 23 0
BBX 0 0 0 0
BITMAP
ENDCHAR
STARTCHAR 20A4
ENCODING 8356
SWIDTH 487 0
DWIDTH 23 0
BBX 0 0 0 0
BITMAP
ENDCHAR
STARTCHAR 20A7
ENCODING 8359
SWIDTH 995 0
DWIDTH 47 0
BBX 0 0 0 0
BITMAP
ENDCHAR
STARTCHAR 20AC
ENCODING 8364
SWIDTH 487 0
DWIDTH 23 0
BBX 0 0 0 0
BITMAP
ENDCHAR
STARTCHAR 2116
ENCODING 8470
SWIDTH 1101 0
DWIDTH 52 0
BBX 0 0 0 0
BITMAP
ENDCHAR
STARTCHAR 2122
ENCODING 8482
SWIDTH 720 0
DWIDTH 34 0
BBX 0 0 0 0
BITMAP
ENDCHAR
STARTCHAR 2202
ENCODING 8706
SWIDTH 487 0
DWIDTH 23 0
BBX 0 0 0 0
BITMAP
ENDCHAR
STARTCHAR 2206
ENCODING 8710
SWIDTH 529 0
DWIDTH 25 0
BBX 0 0 0 0
BITMAP
ENDCHAR
STARTCHAR 220F
ENCODING 8719
SWIDTH 741 0
DWIDTH 35 0
BBX 0 0 0 0
BITMAP
ENDCHAR
STARTCHAR 2211
ENCODING 8721
SWIDTH 592 0
DWIDTH 28 0
BBX 0 0 0 0
BITMAP
ENDCHAR
STARTCHAR 2212
ENCODING 8722
SWIDTH 487 0
DWIDTH 23 0
BBX 0 0 0 0
BITMAP
ENDCHAR
STARTCHAR 2215
ENCODING 8725
SWIDTH 169 0
DWIDTH 8 0
BBX 0 0 0 0
BITMAP
ENDCHAR
STARTCHAR 2219
ENCODING 8729
SWIDTH 254 0
DWIDTH 12 0
BBX 0 0 0 0
BITMAP
ENDCHAR
STARTCHAR 221A
ENCODING 8730
SWIDTH 487 0
DWIDTH 23 0
BBX 0 0 0 0
BITMAP
ENDCHAR
STARTCHAR 221E
ENCODING 8734
SWIDTH 487 0
DWIDTH 23 0
BBX 0 0 0 0
BITMAP
ENDCHAR
STARTCHAR 222B
ENCODING 8747
SWIDTH 317 0
DWIDTH 15 0
BBX 0 0 0 0
BITMAP
ENDCHAR
STARTCHAR 2248
ENCODING 8776
SWIDTH 487 0
DWIDTH 23 0
BBX 0 0 0 0
BITMAP
ENDCHAR
STARTCHAR 2264
ENCODING 8804
SWIDTH 487 0
DWIDTH 23 0
BBX 0 0 0 0
BITMAP
ENDCHAR
STARTCHAR 2265
ENCODING 8805
SWIDTH 487 0
DWIDTH 23 0
BBX 0 0 0 0
BITMAP
ENDCHAR
STARTCHAR F001
ENCODING 61441
SWIDTH 529 0
DWIDTH 25 0
BBX 0 0 0 0
BITMAP
ENDCHAR
STARTCHAR F002
ENCODING 61442
SWIDTH 529 0
DWIDTH 25 0
BBX 0 0 0 0
BITMAP
ENDCHAR
STARTCHAR FB01
ENCODING 64257
SWIDTH 529 0
DWIDTH 25 0
BBX 0 0 0 0
BITMAP
ENDCHAR
STARTCHAR FB02
ENCODING 64258
SWIDTH 529 0
DWIDTH 25 0
BBX 0 0 0 0
BITMAP
ENDCHAR
ENDFONT
